<?xml version="1.0" encoding="UTF-8"?>
<svg width="30px" height="30px" viewBox="0 0 30 30" version="1.1" xmlns="http://www.w3.org/2000/svg" xmlns:xlink="http://www.w3.org/1999/xlink">
    <!-- Generator: Sketch 47.1 (45422) - http://www.bohemiancoding.com/sketch -->
    <title>edit</title>
    <desc>Created with Sketch.</desc>
    <defs></defs>
    <g id="Design" stroke="none" stroke-width="1" fill="none" fill-rule="evenodd">
        <g id="Nubabi-App-Baby-Profile-Empty-State-Web-01a" transform="translate(-1218.000000, -90.000000)">
            <g id="edit" transform="translate(1218.000000, 90.000000)">
                <g id="Icon" transform="translate(7.941176, 7.058824)" fill-rule="nonzero" fill="#FFFFFF">
                    <path d="M15.5111674,5.43353301 C16.0060815,4.93861889 16.0060815,4.13574677 15.5111674,3.64083265 L12.2415966,0.371261902 C11.7455594,-0.123520507 10.9436787,-0.123520507 10.4488962,0.371261902 L1.72991373,9.09024441 L1.4574813,9.36267685 C1.32948479,9.49067336 1.24395184,9.65493949 1.21248247,9.83319743 L0.394803612,14.4649303 C0.288311716,15.0681525 0.813803512,15.5936937 1.41703569,15.4872585 L6.04915016,14.6699612 C6.22743892,14.6385037 6.39173589,14.5529645 6.51975241,14.424948 L6.79218484,14.1525155 L15.5111674,5.43353301 Z M5.27191691,13.1771125 L5.89583466,13.8010302 L5.74251916,12.9320992 L1.11040469,13.7493965 L2.13263677,14.7717247 L2.95031563,10.1399918 L2.08139905,9.98659459 L2.70531679,10.6105123 L2.97774923,10.3380799 L11.6967317,1.6190974 C11.5026171,1.81321208 11.1883675,1.81321208 10.9945524,1.61988767 L14.2633319,4.88866815 C14.0690855,4.69442175 14.0690855,4.37994391 14.2633319,4.18569751 L5.54434934,12.90468 L5.27191691,13.1771125 Z" id="Stroke-463"></path>
                    <path d="M9.11221028,2.95578336 C8.76763002,2.61120311 8.20895504,2.61120311 7.86437478,2.95578336 C7.51979452,3.30036362 7.51979452,3.8590386 7.86437478,4.20361886 L11.6788104,8.01805447 C12.0233906,8.36263473 12.5820656,8.36263473 12.9266459,8.01805447 C13.2712261,7.67347422 13.2712261,7.11479923 12.9266459,6.77021898 L9.11221028,2.95578336 Z" id="Stroke-464"></path>
                </g>
                <circle id="Oval-8" stroke-opacity="0.326115263" stroke="#FFFFFF" stroke-width="2" cx="15" cy="15" r="14"></circle>
            </g>
        </g>
    </g>
</svg>