<svg xmlns="http://www.w3.org/2000/svg" width="21" height="21" viewBox="0 0 21 21">
    <path fill="#EA3154" fill-rule="evenodd" d="M15.68 8.818a3.83 3.83 0 0 1 1.23-4.155 8.637 8.637 0 0 1 2.274 5.837c0 .324-.021.643-.056.957a3.83 3.83 0 0 1-3.448-2.64m-3.422 10.188a3.829 3.829 0 0 1 1.443-4.097 3.83 3.83 0 0 1 4.336-.113 8.705 8.705 0 0 1-5.779 4.21M7.576 10.5a2.924 2.924 0 1 1 5.848.001 2.924 2.924 0 0 1-5.848 0m1.167 8.504a8.706 8.706 0 0 1-5.78-4.21 3.83 3.83 0 0 1 4.336.113 3.83 3.83 0 0 1 1.444 4.097M1.816 10.5c0-2.248.867-4.293 2.274-5.838a3.83 3.83 0 0 1 1.23 4.156 3.83 3.83 0 0 1-3.448 2.639 8.757 8.757 0 0 1-.056-.957M10.5 1.816c1.275 0 2.483.284 3.574.78A3.83 3.83 0 0 1 10.5 5.054a3.83 3.83 0 0 1-3.574-2.458 8.615 8.615 0 0 1 3.574-.78M10.5 0C4.71 0 0 4.71 0 10.5S4.71 21 10.5 21 21 16.29 21 10.5 16.29 0 10.5 0"/>
</svg>
