<?xml version="1.0" encoding="UTF-8"?>
<svg width="17px" height="18px" viewBox="0 0 17 18" version="1.1" xmlns="http://www.w3.org/2000/svg" xmlns:xlink="http://www.w3.org/1999/xlink">
    <!-- Generator: Sketch 47.1 (45422) - http://www.bohemiancoding.com/sketch -->
    <title>baby-stroller</title>
    <desc>Created with Sketch.</desc>
    <defs></defs>
    <g id="Symbols" stroke="none" stroke-width="1" fill="none" fill-rule="evenodd">
        <g id="Menu---Settings---Family-" transform="translate(-16.000000, -110.000000)" fill-rule="nonzero" fill="#9EABBC">
            <g id="baby-stroller">
                <g transform="translate(16.000000, 110.000000)">
                    <path d="M9.84210526,0 L9.84210526,7.2 L17,7.2 C17,3.22197964 13.7968623,0 9.84210526,0 Z" id="Shape"></path>
                    <path d="M3.97263485,8.10000974 L3.12262017,6.3 L0,6.3 L0,8.10000974 L1.99080509,8.10000974 C1.99080509,8.10000974 3.68185911,11.763015 3.88766274,12.0735142 C2.90339548,12.6089989 2.23682996,13.6484964 2.23682996,14.8499935 C2.23682996,16.5914893 3.63710825,18 5.36842547,18 C6.94762331,18 8.24502076,16.8255028 8.46420351,15.3000065 L10.3252437,15.3000065 C10.5444684,16.8255028 11.8418239,18 13.4210217,18 C15.1523389,18 16.5526172,16.5914893 16.5526172,14.8499935 C16.5526172,13.9139817 16.1454977,13.0769837 15.5012866,12.5009992 C16.4363153,11.281488 17,9.76050574 17,8.10000974 L3.97263485,8.10000974 Z M5.36842547,16.1999903 C4.6257793,16.1999903 4.0263191,15.5970058 4.0263191,14.8499935 C4.0263191,14.1029812 4.6257793,13.4999968 5.36842547,13.4999968 C6.11107164,13.4999968 6.71053183,14.1029812 6.71053183,14.8499935 C6.71053183,15.5970058 6.1110297,16.1999903 5.36842547,16.1999903 Z M13.4210637,16.1999903 C12.6784175,16.1999903 12.0789573,15.5970058 12.0789573,14.8499935 C12.0789573,14.1029812 12.6784175,13.4999968 13.4210637,13.4999968 C14.1637098,13.4999968 14.76317,14.1029812 14.76317,14.8499935 C14.76317,15.5970058 14.1636679,16.1999903 13.4210637,16.1999903 Z" id="Shape"></path>
                </g>
            </g>
        </g>
    </g>
</svg>