<?xml version="1.0" encoding="UTF-8"?>
<svg width="16px" height="13px" viewBox="0 0 16 13" version="1.1" xmlns="http://www.w3.org/2000/svg" xmlns:xlink="http://www.w3.org/1999/xlink">
    <!-- Generator: Sketch 47.1 (45422) - http://www.bohemiancoding.com/sketch -->
    <title>Shape</title>
    <desc>Created with Sketch.</desc>
    <defs></defs>
    <g id="Design" stroke="none" stroke-width="1" fill="none" fill-rule="evenodd">
        <g id="Nubabi-App-Baby-Profile-Edit-Photos-Web-01a" transform="translate(-610.000000, -194.000000)" fill="#FFFFFF">
            <path d="M623.421053,195.917293 L621.503759,195.917293 L620.225564,194 L615.112782,194 L613.834586,195.917293 L611.917293,195.917293 C610.830827,195.917293 610,196.81203 610,197.834586 L610,204.864662 C610,205.951128 610.830827,206.781955 611.917293,206.781955 L623.421053,206.781955 C624.507519,206.781955 625.338346,205.951128 625.338346,204.864662 L625.338346,197.834586 C625.338346,196.81203 624.507519,195.917293 623.421053,195.917293 L623.421053,195.917293 Z M624.06015,204.864662 C624.06015,205.24812 623.804511,205.503759 623.421053,205.503759 L611.917293,205.503759 C611.533835,205.503759 611.278195,205.24812 611.278195,204.864662 L611.278195,197.834586 C611.278195,197.451128 611.533835,197.195489 611.917293,197.195489 L614.537594,197.195489 L615.815789,195.278195 L619.586466,195.278195 L620.864662,197.195489 L623.484962,197.195489 C623.804511,197.195489 624.12406,197.515038 624.12406,197.834586 L624.12406,204.864662 L624.06015,204.864662 Z M617.669173,197.834586 C615.879699,197.834586 614.473684,199.240602 614.473684,201.030075 C614.473684,202.819549 615.879699,204.225564 617.669173,204.225564 C619.458647,204.225564 620.864662,202.819549 620.864662,201.030075 C620.864662,199.240602 619.458647,197.834586 617.669173,197.834586 L617.669173,197.834586 Z M617.669173,202.947368 C616.582707,202.947368 615.75188,202.116541 615.75188,201.030075 C615.75188,199.943609 616.582707,199.112782 617.669173,199.112782 C618.755639,199.112782 619.586466,199.943609 619.586466,201.030075 C619.586466,202.116541 618.755639,202.947368 617.669173,202.947368 L617.669173,202.947368 Z" id="Shape"></path>
        </g>
    </g>
</svg>