<?xml version="1.0" encoding="UTF-8"?>
<svg width="20px" height="16px" viewBox="0 0 20 16" version="1.1" xmlns="http://www.w3.org/2000/svg" xmlns:xlink="http://www.w3.org/1999/xlink">
    <!-- Generator: Sketch 47.1 (45422) - http://www.bohemiancoding.com/sketch -->
    <title>Group 3</title>
    <desc>Created with Sketch.</desc>
    <defs></defs>
    <g id="Symbols" stroke="none" stroke-width="1" fill="none" fill-rule="evenodd">
        <g id="Menu---Library" transform="translate(-17.000000, -98.000000)" fill="#9EABBC">
            <g id="Group-7">
                <g id="Group-3" transform="translate(17.000000, 98.000000)">
                    <g id="growth">
                        <path d="M1.11014219,16.0000169 C0.916808048,16.0000169 0.720807231,15.9493501 0.542584265,15.8431274 C0.0154709566,15.5291261 -0.157418653,14.8473455 0.156804879,14.3200099 L2.8641495,9.7751021 C3.05526141,9.45421187 3.39526282,9.25087769 3.76837549,9.23376651 C4.14393261,9.2164331 4.49837853,9.38887827 4.71793501,9.69132397 L5.87393983,11.2842195 L8.32906117,7.11042432 C8.5175064,6.78975632 8.8543967,6.58464435 9.2259538,6.56419982 C9.5975109,6.54597752 9.9546235,6.71108932 10.1772911,7.00931279 L12.3184111,9.87843586 L17.9366568,0.538396923 C18.2533248,0.0128391768 18.9355498,-0.157161532 19.461552,0.159062009 C19.987332,0.475285549 20.1571105,1.15795506 19.8408869,1.68373503 L13.3697489,12.4420021 C13.1788592,12.7591145 12.8426355,12.9606709 12.472634,12.9788932 C12.1039658,12.9991155 11.748631,12.8304482 11.5270745,12.5337803 L9.39639895,9.67865725 L6.92905534,13.8735636 C6.73905454,14.1966761 6.39905313,14.4020103 6.02482934,14.4200104 C5.64927222,14.4373438 5.29238185,14.2662319 5.0721587,13.9628973 L3.90993164,12.3615573 L2.06570173,15.457348 C1.85792308,15.8062384 1.48881043,16.0000169 1.11014219,16.0000169" id="graph-line"></path>
                    </g>
                </g>
            </g>
        </g>
    </g>
</svg>