<?xml version="1.0" encoding="UTF-8"?>
<svg width="23px" height="20px" viewBox="0 0 23 20" version="1.1" xmlns="http://www.w3.org/2000/svg" xmlns:xlink="http://www.w3.org/1999/xlink">
    <!-- Generator: Sketch 47.1 (45422) - http://www.bohemiancoding.com/sketch -->
    <title>speech-bubble</title>
    <desc>Created with Sketch.</desc>
    <defs></defs>
    <g id="Design" stroke="none" stroke-width="1" fill="none" fill-rule="evenodd">
        <g id="Nubabi-App-Baby-Profile-Empty-State-Web-01a" transform="translate(-955.000000, -883.000000)" fill="#748294">
            <g id="Group-8" transform="translate(948.000000, 874.000000)">
                <g id="speech-bubble" transform="translate(7.000000, 9.000000)">
                    <g id="Capa_1">
                        <g id="Group">
                            <path d="M18.2805111,10.441376 L18.2805111,2.11605713 C18.2805111,0.963106966 17.3405557,0.0231516098 16.1876055,0.0231516098 L2.09290552,0.0231516098 C0.939955356,0.0231516098 0,0.963106966 0,2.11605713 L0,10.441376 C0,11.5943262 0.939955356,12.5342815 2.09290552,12.5342815 L2.69021705,12.5342815 L2.69021705,15.043916 C2.69021705,15.5069482 3.06527313,15.8820043 3.53293565,15.8820043 L3.53293565,15.8820043 C3.77371239,15.8820043 4.00522849,15.7755069 4.16728976,15.590294 L6.81120359,12.5296512 L16.1922359,12.5296512 C17.3405557,12.5342815 18.2805111,11.5943262 18.2805111,10.441376 L18.2805111,10.441376 Z M6.54727524,11.3998526 C6.38058365,11.3998526 6.22778303,11.4693075 6.1166553,11.5943262 L3.82001561,14.2475006 L3.82001561,11.9647519 C3.82001561,11.64989 3.5653479,11.3952223 3.25048601,11.3952223 L2.09290552,11.3952223 C1.56504882,11.3952223 1.13442888,10.9646024 1.13442888,10.4367457 L1.13442888,2.11605713 C1.13442888,1.58820043 1.56504882,1.15758049 2.09290552,1.15758049 L16.1876055,1.15758049 C16.7154623,1.15758049 17.1460822,1.58820043 17.1460822,2.11605713 L17.1460822,10.441376 C17.1460822,10.9692327 16.7154623,11.3998526 16.1876055,11.3998526 L6.54727524,11.3998526 L6.54727524,11.3998526 L6.54727524,11.3998526 Z" id="Shape"></path>
                            <path d="M18.5073968,19.0213626 C18.6694581,19.2112058 18.9009742,19.3130729 19.1371206,19.3130729 C19.2343574,19.3130729 19.3362245,19.2945516 19.4334612,19.257509 C19.7668444,19.1324903 19.9798392,18.8268891 19.9798392,18.4703543 L19.9798392,15.9607198 L20.5771508,15.9607198 C21.7301009,15.9607198 22.6700563,15.0207644 22.6700563,13.8678142 L22.6700563,5.54249538 C22.6700563,4.38954521 21.7301009,3.44958985 20.5771508,3.44958985 C20.2622889,3.44958985 20.0076212,3.70425756 20.0076212,4.01448913 C20.0076212,4.32935103 20.2622889,4.58401873 20.5771508,4.58401873 C21.1050075,4.58401873 21.5356274,5.01463868 21.5356274,5.54249538 L21.5356274,13.8678142 C21.5356274,14.395671 21.1050075,14.8262909 20.5771508,14.8262909 L19.4149399,14.8262909 C19.1000781,14.8262909 18.8454103,15.0809586 18.8454103,15.3958205 L18.8454103,17.6785692 L16.5487707,15.0253947 C16.4422733,14.900376 16.2848423,14.8309212 16.1181507,14.8309212 L7.59835832,14.8309212 C7.28349643,14.8309212 7.02882872,15.0855889 7.02882872,15.4004508 C7.02882872,15.7153127 7.28349643,15.9699804 7.59835832,15.9699804 L15.8588527,15.9699804 L18.5073968,19.0213626 L18.5073968,19.0213626 Z" id="Shape"></path>
                        </g>
                    </g>
                </g>
            </g>
        </g>
    </g>
</svg>