<?xml version="1.0" encoding="UTF-8"?>
<svg width="14px" height="14px" viewBox="0 0 14 14" version="1.1" xmlns="http://www.w3.org/2000/svg" xmlns:xlink="http://www.w3.org/1999/xlink">
    <!-- Generator: Sketch 47.1 (45422) - http://www.bohemiancoding.com/sketch -->
    <title>cross</title>
    <desc>Created with Sketch.</desc>
    <defs></defs>
    <g id="Design" stroke="none" stroke-width="1" fill="none" fill-rule="evenodd">
        <g id="Nubabi-App-Baby-Profile-Web-01a" transform="translate(-1006.000000, -1015.000000)" fill="#FFFFFF">
            <g id="Group-4" transform="translate(425.000000, 1010.000000)">
                <g id="•-Section">
                    <g id="•-btn-add" transform="translate(576.000000, 0.000000)">
                        <g id="Group-7">
                            <path d="M16.9904549,15.7180364 C17.3417496,16.0693311 17.3417496,16.6391603 16.9904549,16.9904549 C16.8147076,17.1662022 16.5845766,17.2539759 16.3542457,17.2539759 C16.1239147,17.2539759 15.8937837,17.1662022 15.7180364,16.9904549 L12.0555344,13.3279529 L8.3930324,16.9904549 C8.21728509,17.1662022 7.98715408,17.2539759 7.75682314,17.2539759 C7.52649219,17.2539759 7.29636118,17.1662022 7.12061387,16.9904549 C6.76931919,16.6391603 6.76931919,16.0693311 7.12061387,15.7180364 L10.7831159,12.0555344 L7.12061387,8.3930324 C6.76931919,8.04173772 6.76931919,7.47190855 7.12061387,7.12061387 C7.47210849,6.76931919 8.04153778,6.76931919 8.3930324,7.12061387 L12.0555344,10.7831159 L15.7180364,7.12061387 C16.069531,6.76931919 16.6389603,6.76931919 16.9904549,7.12061387 C17.3417496,7.47190855 17.3417496,8.04173772 16.9904549,8.3930324 L13.3279529,12.0555344 L16.9904549,15.7180364 Z" id="cross" transform="translate(12.055534, 12.055559) rotate(-45.000000) translate(-12.055534, -12.055559) "></path>
                        </g>
                    </g>
                </g>
            </g>
        </g>
    </g>
</svg>