<?xml version="1.0" encoding="UTF-8"?>
<svg width="21px" height="5px" viewBox="0 0 21 5" version="1.1" xmlns="http://www.w3.org/2000/svg" xmlns:xlink="http://www.w3.org/1999/xlink">
    <!-- Generator: Sketch 47.1 (45422) - http://www.bohemiancoding.com/sketch -->
    <title>Combined Shape</title>
    <desc>Created with Sketch.</desc>
    <defs></defs>
    <g id="Design" stroke="none" stroke-width="1" fill="none" fill-rule="evenodd">
        <g id="Nubabi-App-Settings-Web-01a" transform="translate(-463.000000, -362.000000)" fill="#9EABBC">
            <g id="Group-2-Copy" transform="translate(451.000000, 342.000000)">
                <g id="avatar">
                    <path d="M22.5,25 C21.1192881,25 20,23.8807119 20,22.5 C20,21.1192881 21.1192881,20 22.5,20 C23.8807119,20 25,21.1192881 25,22.5 C25,23.8807119 23.8807119,25 22.5,25 Z M14.5,25 C13.1192881,25 12,23.8807119 12,22.5 C12,21.1192881 13.1192881,20 14.5,20 C15.8807119,20 17,21.1192881 17,22.5 C17,23.8807119 15.8807119,25 14.5,25 Z M30.5,25 C29.1192881,25 28,23.8807119 28,22.5 C28,21.1192881 29.1192881,20 30.5,20 C31.8807119,20 33,21.1192881 33,22.5 C33,23.8807119 31.8807119,25 30.5,25 Z" id="Combined-Shape"></path>
                </g>
            </g>
        </g>
    </g>
</svg>