<svg xmlns="http://www.w3.org/2000/svg" xmlns:xlink="http://www.w3.org/1999/xlink" width="75" height="75" viewBox="0 0 75 75">
    <defs>
        <path id="b" d="M34.5 69C53.554 69 69 53.554 69 34.5 69 15.446 53.554 0 34.5 0 15.446 0 0 15.446 0 34.5 0 53.554 15.446 69 34.5 69z"/>
        <filter id="a" width="114.5%" height="114.5%" x="-7.2%" y="-5.8%" filterUnits="objectBoundingBox">
            <feOffset dy="1" in="SourceAlpha" result="shadowOffsetOuter1"/>
            <feGaussianBlur in="shadowOffsetOuter1" result="shadowBlurOuter1" stdDeviation="1.5"/>
            <feColorMatrix in="shadowBlurOuter1" values="0 0 0 0 0 0 0 0 0 0 0 0 0 0 0 0 0 0 0.15 0"/>
        </filter>
    </defs>
    <g fill="none" fill-rule="evenodd">
        <g transform="translate(3 2)">
            <use fill="#000" filter="url(#a)" xlink:href="#b"/>
            <use fill="#FFF" xlink:href="#b"/>
        </g>
        <path fill="#FCE5EA" d="M50.65 29.398c1.868 1.804 1.788 4.654-.181 6.366-1.236 1.075-2.922 1.445-4.469 1.125a5.04 5.04 0 0 0 2.32-1.125c1.967-1.712 2.048-4.562.18-6.366a5.02 5.02 0 0 0-2.48-1.29c1.629-.33 3.398.102 4.63 1.29z"/>
        <path fill="#FCE5EA" d="M47.435 29c.243-.458.417-.967.504-1.514.407-2.571-1.268-5-3.743-5.423-1.63-.279-3.197.386-4.196 1.605a4.37 4.37 0 0 1 2.612-.358c2.475.423 4.15 2.85 3.743 5.422l-.006.044 1.086.224zM26 19h4v-4h-4z"/>
        <path stroke="#748294" stroke-linecap="round" stroke-linejoin="round" stroke-width="2" d="M36 48H24.761C23.789 48 23 47.224 23 46.267v-13.51c0-1.9.702-3.724 1.94-5.183 1.339-1.58 2.298-4.761 2.542-8.574M33 19c.217 3.696 1.075 6.78 2.273 8.311A8.165 8.165 0 0 1 37 32"/>
        <path stroke="#CFD6DF" stroke-width="2" d="M31.348 43H23v-9h13"/>
        <path stroke="#748294" stroke-width="2" d="M33.35 15h-6.7c-.36 0-.65.32-.65.713v2.575c0 .393.29.712.65.712h6.699c.36 0 .651-.319.651-.712v-2.575c0-.394-.292-.713-.65-.713zM43.003 31a4.475 4.475 0 0 1-2.766-1.378 4.523 4.523 0 0 1 .165-6.382 4.49 4.49 0 0 1 6.362.166 4.526 4.526 0 0 1 .815 5.016"/>
        <path fill="#FFF" d="M43.969 35.749a4.85 4.85 0 0 1-.531.563c-1.978 1.788-5.103 1.71-6.98-.172-1.877-1.883-1.796-4.859.182-6.647 1.977-1.788 5.101-1.71 6.979.173.117.117.227.24.329.365"/>
        <path stroke="#748294" stroke-width="2" d="M43.969 35.749a4.85 4.85 0 0 1-.531.563c-1.978 1.788-5.103 1.71-6.98-.172-1.877-1.883-1.796-4.859.182-6.647 1.977-1.788 5.101-1.71 6.979.173.117.117.227.24.329.365"/>
        <path stroke="#748294" stroke-width="2" d="M49.599 35.764a4.5 4.5 0 1 1-6.197-6.528 4.5 4.5 0 0 1 6.197 6.528z"/>
        <path fill="#EA3154" d="M25.482 37.064h6.37"/>
        <path stroke="#EA3154" stroke-linecap="round" stroke-linejoin="round" stroke-width="2" d="M25.482 37.064h6.37"/>
        <path fill="#FFF" d="M20.418 33.119H42.89v21.88H21.93c-.836 0-1.512-.688-1.512-1.539V40.897"/>
        <path stroke="#748294" stroke-linecap="round" stroke-linejoin="round" stroke-width="2" d="M20.418 33.119H42.89v21.88H21.93c-.836 0-1.512-.688-1.512-1.539V40.897"/>
        <path stroke="#EA3154" stroke-linecap="round" stroke-linejoin="round" stroke-width="2" d="M35 49h5M35 52h3"/>
        <path stroke="#748294" stroke-linecap="round" stroke-linejoin="round" stroke-width="2" d="M20.228 33l-4.125 6.92c-.281.472.047 1.08.583 1.08h21.162a.68.68 0 0 0 .584-.336L43 33"/>
        <g>
            <path fill="#FCE5EA" d="M53.715 33.119h-10.35l.001 21.88h8.81c.85 0 1.54-.688 1.54-1.539V40.897"/>
            <path stroke="#748294" stroke-linecap="round" stroke-linejoin="round" stroke-width="2" d="M53.715 33.119h-10.35l.001 21.88h8.81c.85 0 1.54-.688 1.54-1.539V40.897"/>
        </g>
        <path fill="#FCE5EA" d="M54.632 33l4.262 6.92A.708.708 0 0 1 58.29 41h-8.97a.709.709 0 0 1-.601-.336L44 33h10.632z"/>
        <path stroke="#748294" stroke-linecap="round" stroke-linejoin="round" stroke-width="2" d="M54.632 33l4.262 6.92A.708.708 0 0 1 58.29 41h-8.97a.709.709 0 0 1-.601-.336L44 33h10.632z"/>
    </g>
</svg>
