<?xml version="1.0" encoding="UTF-8" standalone="no"?>
<svg width="22px" height="21px" viewBox="0 0 22 21" version="1.1" xmlns="http://www.w3.org/2000/svg" xmlns:xlink="http://www.w3.org/1999/xlink">
    <!-- Generator: Sketch 46.2 (44496) - http://www.bohemiancoding.com/sketch -->
    <title>favourite</title>
    <desc>Created with Sketch.</desc>
    <defs></defs>
    <g id="Design" stroke="none" stroke-width="1" fill="none" fill-rule="evenodd">
        <g id="Nubabi-App-Stimulation-Activity-Detail-Web-01a" transform="translate(-658.000000, -383.000000)" fill="#9EABBC">
            <g id="Tab-actions-" transform="translate(658.000000, 383.000000)">
                <path d="M17.1794593,13.4875722 L18.2332287,19.6224093 C18.3087508,20.0641034 18.1258457,20.5110979 17.7629856,20.7749365 C17.5576599,20.9239347 17.313393,20.9999061 17.0691262,20.9999061 C16.881501,20.9999061 16.6926957,20.9551477 16.5198209,20.8644532 L11.0002167,17.9681175 L5.4806125,20.8644532 C5.08294139,21.0735217 4.60148794,21.0381862 4.23744777,20.7761144 C3.87458763,20.5122757 3.69227254,20.0658702 3.76838467,19.6235871 L4.82274412,13.48875 L0.356909369,9.14365756 C0.0341703533,8.83093811 -0.0802928442,8.36274233 0.0571809961,7.93636026 C0.196424886,7.50997818 0.565185187,7.19961443 1.01005761,7.13483263 L7.18104,6.23907692 L9.94231713,0.657240876 C10.1399727,0.254415823 10.5506241,0 10.9996267,0 C11.4498092,0 11.8586907,0.254415823 12.0575262,0.65665195 L14.8188034,6.23848799 L20.9909658,7.1342437 C21.4346582,7.19843658 21.8045985,7.50938926 21.9414823,7.93577133 C22.0819062,8.3621534 21.964493,8.83034919 21.644114,9.14306864 L17.1794593,13.4875722 Z" id="favourite"></path>
            </g>
        </g>
    </g>
</svg>