<?xml version="1.0" encoding="UTF-8"?>
<svg width="24px" height="26px" viewBox="0 0 24 26" version="1.1" xmlns="http://www.w3.org/2000/svg" xmlns:xlink="http://www.w3.org/1999/xlink">
    <!-- Generator: Sketch 47.1 (45422) - http://www.bohemiancoding.com/sketch -->
    <title>Page 1</title>
    <desc>Created with Sketch.</desc>
    <defs>
        <filter x="-3.4%" y="-0.8%" width="106.9%" height="102.3%" filterUnits="objectBoundingBox" id="filter-1">
            <feOffset dx="0" dy="2" in="SourceAlpha" result="shadowOffsetOuter1"></feOffset>
            <feGaussianBlur stdDeviation="2" in="shadowOffsetOuter1" result="shadowBlurOuter1"></feGaussianBlur>
            <feColorMatrix values="0 0 0 0 0   0 0 0 0 0   0 0 0 0 0  0 0 0 0.5 0" type="matrix" in="shadowBlurOuter1" result="shadowMatrixOuter1"></feColorMatrix>
            <feMerge>
                <feMergeNode in="shadowMatrixOuter1"></feMergeNode>
                <feMergeNode in="SourceGraphic"></feMergeNode>
            </feMerge>
        </filter>
    </defs>
    <g id="Symbols" stroke="none" stroke-width="1" fill="none" fill-rule="evenodd">
        <g id="Menu---Settings---Unit" transform="translate(-12.000000, -291.000000)">
            <g id="Group-2" filter="url(#filter-1)">
                <g id="Page-1" transform="translate(14.000000, 292.000000)">
                    <polygon id="Stroke-1" stroke-opacity="0.00784313771" stroke="#000000" stroke-width="1.33333335e-11" points="0 0 19.9999987 0 19.9999987 19.9999987 0 19.9999987"></polygon>
                    <path d="M16.1916659,10.8166656 C16.225,10.5499992 16.249999,10.283332 16.249999,9.9999994 C16.249999,9.71666675 16.2249984,9.44999952 16.1916659,9.18333312 L17.9499997,7.80833356 C18.1083334,7.68333389 18.1499994,7.45833352 18.0500003,7.27499997 L16.3833338,4.39166678 C16.2833331,4.20833363 16.0583343,4.14166663 15.875,4.20833363 L13.8000003,5.04166691 C13.3666666,4.70833353 12.9000004,4.4333336 12.3916666,4.22500028 L12.0749999,2.016667 C12.0499993,1.81666661 11.8749993,1.66666657 11.666666,1.66666657 L8.33333283,1.66666657 C8.12499951,1.66666657 7.94999949,1.81666661 7.92499971,2.0166666 L7.60833297,4.22499989 C7.09999995,4.43333321 6.63333296,4.71666665 6.19999967,5.04166652 L4.12499959,4.20833324 C3.93333292,4.13333311 3.71666647,4.20833324 3.61666617,4.39166639 L1.94999961,7.27499918 C1.84166619,7.45833272 1.89166634,7.6833323 2.04999951,7.80833276 L3.80833285,9.18333312 C3.77499955,9.44999952 3.74999938,9.72499942 3.74999938,9.9999994 C3.74999938,10.2749993 3.77499955,10.5499992 3.80833285,10.8166656 L2.0499997,12.1916652 C1.89166634,12.3166648 1.84999971,12.5416652 1.94999961,12.7249988 L3.61666617,15.608332 C3.71666608,15.7916647 3.94166605,15.8583313 4.12499959,15.7916647 L6.19999928,14.9583314 C6.63333257,15.2916644 7.09999916,15.5666643 7.60833218,15.7749976 L7.92499892,17.9833306 C7.94999869,18.1833303 8.12499871,18.3333306 8.33333203,18.3333306 L11.6666651,18.3333306 C11.8749985,18.3333306 12.0499984,18.1833303 12.0749983,17.9833306 L12.391665,15.7749976 C12.899998,15.5666643 13.366665,15.2833309 13.7999987,14.9583314 L15.8749984,15.7916647 C16.0666646,15.8666649 16.2833315,15.7916647 16.3833322,15.608332 L18.0499988,12.7249988 C18.1499994,12.5416652 18.1083318,12.3166657 17.9499981,12.1916652 L16.1916643,10.8166656 L16.1916659,10.8166656 Z M9.9999994,12.9166659 C8.39166583,12.9166659 7.08333291,11.6083329 7.08333291,9.9999994 C7.08333291,8.39166583 8.39166583,7.08333291 9.9999994,7.08333291 C11.6083329,7.08333291 12.9166659,8.39166583 12.9166659,9.9999994 C12.9166659,11.6083329 11.6083329,12.9166659 9.9999994,12.9166659 Z" id="Fill-2" fill="#EA3154"></path>
                </g>
            </g>
        </g>
    </g>
</svg>