<?xml version="1.0" encoding="UTF-8"?>
<svg width="16px" height="17px" viewBox="0 0 16 17" version="1.1" xmlns="http://www.w3.org/2000/svg" xmlns:xlink="http://www.w3.org/1999/xlink">
    <!-- Generator: Sketch 47.1 (45422) - http://www.bohemiancoding.com/sketch -->
    <title>Page 1</title>
    <desc>Created with Sketch.</desc>
    <defs></defs>
    <g id="Symbols" stroke="none" stroke-width="1" fill="none" fill-rule="evenodd">
        <g id="Menu---Settings---Family-" transform="translate(-16.000000, -294.000000)">
            <g id="Page-1">
                <g transform="translate(14.000000, 292.000000)">
                    <polygon id="Stroke-1" stroke-opacity="0.00784313771" stroke="#000000" stroke-width="1.33333335e-11" points="0 0 20 0 20 20 0 20"></polygon>
                    <path d="M16.1125644,11.3330005 C16.1454628,11.0610007 16.1701351,10.7890001 16.1701351,10.5000009 C16.1701351,10.2110015 16.1454613,9.93900088 16.1125644,9.66700111 L17.8479186,8.26450133 C18.0041831,8.13700165 18.0453046,7.90750124 17.9466124,7.72050099 L16.3017273,4.77950066 C16.2030336,4.59250082 15.9809752,4.52450047 15.8000369,4.59250082 L13.7521552,5.44250091 C13.3244848,5.10250079 12.8639174,4.82200083 12.3622269,4.6095008 L12.0496987,2.3570005 C12.0250249,2.15300007 11.8523119,2 11.6467013,2 L8.35693123,2 C8.1513206,2 7.97860764,2.15300007 7.95393458,2.3570001 L7.64140633,4.60950041 C7.13971668,4.82200043 6.67914852,5.11100058 6.25147843,5.44250051 L4.20359636,4.59250042 C4.01443458,4.51600028 3.80059972,4.59250042 3.70190632,4.77950026 L2.05702129,7.72050018 C1.95010367,7.90750042 1.99945037,8.13700003 2.1557143,8.26450052 L3.89106812,9.66700111 C3.85817045,9.93900088 3.833497,10.2195008 3.833497,10.5000009 C3.833497,10.7805008 3.85817045,11.0610007 3.89106812,11.3330005 L2.15571449,12.7355003 C1.99945037,12.863 1.95832829,13.0925004 2.05702129,13.2795007 L3.70190632,16.220501 C3.80059933,16.4075004 4.02265879,16.4755003 4.20359636,16.4075004 L6.25147805,15.5575003 C6.67914814,15.8975 7.1397159,16.178 7.64140555,16.3905 L7.9539338,18.643 C7.97860685,18.8469997 8.15131981,19 8.35693044,19 L11.6467005,19 C11.8523111,19 12.025024,18.8469997 12.0496971,18.643 L12.3622254,16.3905 C12.863915,16.178 13.3244832,15.8889999 13.7521536,15.5575003 L15.8000353,16.4075004 C15.9891967,16.4840006 16.203032,16.4075004 16.3017258,16.220501 L17.9466108,13.2795007 C18.0453046,13.0925004 18.0041815,12.8630008 17.847917,12.7355003 L16.1125628,11.3330005 L16.1125644,11.3330005 Z M10.0018163,13.4750011 C8.41450188,13.4750011 7.12326746,12.1405013 7.12326746,10.5000009 C7.12326746,8.85950035 8.41450188,7.52500055 10.0018163,7.52500055 C11.5891306,7.52500055 12.8803651,8.85950035 12.8803651,10.5000009 C12.8803651,12.1405013 11.5891306,13.4750011 10.0018163,13.4750011 Z" id="Fill-2" fill="#9EABBC"></path>
                </g>
            </g>
        </g>
    </g>
</svg>