<svg xmlns="http://www.w3.org/2000/svg" xmlns:xlink="http://www.w3.org/1999/xlink" width="75" height="75" viewBox="0 0 75 75">
    <defs>
        <path id="b" d="M34.5 69C53.554 69 69 53.554 69 34.5 69 15.446 53.554 0 34.5 0 15.446 0 0 15.446 0 34.5 0 53.554 15.446 69 34.5 69z"/>
        <filter id="a" width="114.5%" height="114.5%" x="-7.2%" y="-5.8%" filterUnits="objectBoundingBox">
            <feOffset dy="1" in="SourceAlpha" result="shadowOffsetOuter1"/>
            <feGaussianBlur in="shadowOffsetOuter1" result="shadowBlurOuter1" stdDeviation="1.5"/>
            <feColorMatrix in="shadowBlurOuter1" values="0 0 0 0 0 0 0 0 0 0 0 0 0 0 0 0 0 0 0.15 0"/>
        </filter>
    </defs>
    <g fill="none" fill-rule="evenodd" transform="translate(3 2)">
        <use fill="#000" filter="url(#a)" xlink:href="#b"/>
        <use fill="#FFF" xlink:href="#b"/>
        <circle cx="35" cy="36" r="21" fill="#EDF0F9"/>
        <g fill="#748294">
            <path d="M55.396 43.364a2.099 2.099 0 0 0-1.445-.723 2.097 2.097 0 0 0-1.534.511c-1.18 1.023-2.555 1.937-4.078 2.73-.907-2.194-3.373-9.043-2.006-15.842l4.52 3.013c.902.6 2.063.672 3.03.188a3.015 3.015 0 0 0 1.595-3.384l-1.508-6.535a4.262 4.262 0 0 0-1.141-2.057l-.511-.511v-1.877V16.767c-.002-.528-.404-.72-.674-.72-2.044 0-3.055 1.67-3.415 2.894-1.817.13-3.381.925-4.885 2.476-1.51 1.557-2.93 3.844-4.497 6.455l-.237.391H28.108c-1.996 0-4.125-.3-6.508-.92-2.311-.6-6.513-.564-8.693 6.424a.674.674 0 0 0 .222.726l3.594 2.875a.674.674 0 0 0 1.086-.417c.188-1.144 1.041-4.315 2.714-5.234.466-.257.97-.322 1.527-.195L17.493 45.84c-1.49-.784-2.838-1.684-3.998-2.69a2.096 2.096 0 0 0-1.534-.51 2.099 2.099 0 0 0-1.445.722c-.37.426-.55.97-.51 1.533.04.563.296 1.076.722 1.445 5.315 4.607 13.417 7.25 22.228 7.25 8.811 0 16.913-2.643 22.227-7.25.426-.369.683-.882.723-1.444a2.096 2.096 0 0 0-.51-1.533zM37.737 29.611c-1.381 1.988-3.09 3.683-5.5 3.683a5.626 5.626 0 0 1-2.918-.796c-1.14-.69-1.89-1.746-2.097-2.906.298.012.593.019.886.019h9.629zm-14.201 1.686a.674.674 0 0 0-.378-.824c-1.184-.505-2.289-.484-3.284.063-1.835 1.008-2.76 3.61-3.153 5.105l-2.386-1.908c.81-2.383 1.934-3.978 3.344-4.746 1.047-.57 2.252-.685 3.582-.34 1.625.422 3.14.702 4.584.847.184 1.672 1.192 3.197 2.776 4.156 1.07.648 2.32.991 3.616.991 4.12 0 6.491-3.952 7.766-6.076 1.523-2.537 2.898-4.756 4.308-6.21 1.4-1.443 2.774-2.086 4.458-2.086.33 0 .612-.241.665-.567a4.01 4.01 0 0 1 .463-1.236c.289-.487.643-.805 1.074-.96l-.001 3.526c0 .18.07.35.197.477l.709.709c.387.387.657.874.78 1.407l1.509 6.535a1.671 1.671 0 0 1-.884 1.876 1.68 1.68 0 0 1-1.68-.104l-5.334-3.555a.674.674 0 0 0-1.026.394c-1.92 7.52.888 15.298 1.872 17.67l-1.769.737a18.307 18.307 0 0 0-3.33-4.357c-2.627-2.507-5.674-3.779-9.058-3.779-3.384 0-6.431 1.272-9.058 3.779a18.305 18.305 0 0 0-3.346 4.386 28.227 28.227 0 0 1-1.836-.766l4.82-15.144zM44.07 47.66c-3.388 1.105-7.196 1.709-11.114 1.709-3.917 0-7.725-.604-11.113-1.709 1.204-2.127 4.77-7.27 11.113-7.27s9.91 5.143 11.114 7.27zm10.492-2.859a.759.759 0 0 1-.261.523c-5.074 4.397-12.853 6.92-21.345 6.92-8.492 0-16.272-2.523-21.345-6.92a.764.764 0 0 1 1-1.155c4.73 4.1 12.335 6.547 20.345 6.547 8.01 0 15.615-2.447 20.344-6.546a.76.76 0 0 1 1.262.631z"/>
            <path d="M50.206 26.284a.674.674 0 0 0 .674-.674v-.718a.674.674 0 0 0-1.348 0v.718c0 .373.302.674.674.674z"/>
        </g>
    </g>
</svg>
