<?xml version="1.0" encoding="UTF-8"?>
<svg width="13px" height="19px" viewBox="0 0 13 19" version="1.1" xmlns="http://www.w3.org/2000/svg" xmlns:xlink="http://www.w3.org/1999/xlink">
    <!-- Generator: Sketch 47.1 (45422) - http://www.bohemiancoding.com/sketch -->
    <title>icon</title>
    <desc>Created with Sketch.</desc>
    <defs></defs>
    <g id="Design" stroke="none" stroke-width="1" fill="none" fill-rule="evenodd">
        <g id="Nubabi-App-Baby-Profile-Empty-State-Web-01a" transform="translate(-305.000000, -337.000000)" fill="#9EABBC">
            <g id="icon" transform="translate(305.000000, 337.000000)">
                <path d="M6.18854907,18.3204033 C6.77579003,18.3179666 7.24296423,17.8507924 7.24558967,17.2633627 L7.27184253,7.76530224 L9.39859075,9.89205046 C9.81229672,10.3057564 10.5128622,10.3090527 10.929827,9.8920879 L10.935301,9.88661394 C11.3522657,9.46964917 11.3494656,8.78543534 10.9357596,8.37172936 L6.9977046,4.43027674 C6.79908829,4.23166044 6.53823201,4.12860522 6.25626612,4.1297752 C5.97411303,4.13075799 5.7125142,4.25195886 5.51224276,4.4522303 L1.5456979,8.41877516 C1.12873314,8.83573992 1.12575202,9.50888728 1.539458,9.92259325 C1.95335117,10.3364864 2.62631132,10.3333181 3.04327609,9.91635334 L5.18699218,7.77263725 L5.13949555,17.2713498 C5.13724606,17.858778 5.60112091,18.3226528 6.18854907,18.3204033" id="contract-2"></path>
                <path d="M11.75625,2.3030303 C12.397514,2.3030303 12.9173611,1.78747941 12.9173611,1.15151515 C12.9173611,0.515550894 12.397514,0 11.75625,0 L1.16111111,0 C0.519847152,0 0,0.515550894 0,1.15151515 C0,1.78747941 0.519847152,2.3030303 1.16111111,2.3030303 L11.75625,2.3030303 Z" id="Line" fill-rule="nonzero"></path>
            </g>
        </g>
    </g>
</svg>