<svg xmlns="http://www.w3.org/2000/svg" width="25" height="22" viewBox="0 0 25 22">
    <g fill="#EA3154" fill-rule="nonzero">
        <path d="M13.462 5.77v5.738l4.938 2.915.83-1.394-4.038-2.382V5.769z"/>
        <path d="M14.28 0C8.357 0 3.57 4.736 3.57 10.577H0l4.637 4.577.083.17 4.804-4.747H5.952c0-4.542 3.733-8.227 8.334-8.227 4.6 0 8.333 3.685 8.333 8.227s-3.732 8.226-8.333 8.226a8.354 8.354 0 0 1-5.887-2.415l-1.685 1.663a10.716 10.716 0 0 0 7.566 3.103c5.922 0 10.72-4.736 10.72-10.577C25 4.737 20.202 0 14.28 0z"/>
    </g>
</svg>
