<?xml version="1.0" encoding="UTF-8"?>
<svg width="21px" height="18px" viewBox="0 0 21 18" version="1.1" xmlns="http://www.w3.org/2000/svg" xmlns:xlink="http://www.w3.org/1999/xlink">
    <!-- Generator: Sketch 47.1 (45422) - http://www.bohemiancoding.com/sketch -->
    <title>library</title>
    <desc>Created with Sketch.</desc>
    <defs></defs>
    <g id="Symbols" stroke="none" stroke-width="1" fill="none" fill-rule="evenodd">
        <g id="Menu---Stimulation" transform="translate(-18.000000, -240.000000)" fill-rule="nonzero" fill="#9EABBC">
            <g id="Group-15">
                <g id="Group-7" transform="translate(1.000000, 0.000000)">
                    <g id="library" transform="translate(17.000000, 240.000000)">
                        <polygon id="Stroke-450" points="11 3.10526316 9 3.10526316 9 15.7368421 11 15.7368421"></polygon>
                        <path d="M2,1.62315789 C2,2.28770213 1.6848191,2.41269705 1.42980181,2.42103838 C1.45927661,2.42007429 1.48180319,2.42002701 1.55516961,2.42059544 C1.59093887,2.42092226 1.59093887,2.42092226 1.63115789,2.42105263 L7.10484211,2.42105263 C8.04840489,2.42105263 9.09202984,2.97359896 9.51168437,3.67070143 C9.79652747,4.14386403 10.4110125,4.29652716 10.8841751,4.01168406 C11.3573377,3.72684095 11.5100008,3.11235592 11.2251577,2.63919331 C10.4324261,1.32235966 8.7300774,0.421052632 7.10484211,0.421052632 L1.63115789,0.421052632 C1.60661485,0.42097422 1.60661485,0.42097422 1.57297306,0.42067468 C1.48413542,0.419841505 1.43023426,0.41995465 1.36441904,0.422107391 C1.14141391,0.429401636 0.954263655,0.45621848 0.75544736,0.535065347 C0.323912651,0.706204034 0,1.09268764 0,1.62315789 L0,14.8947368 C0,15.4470216 0.44771525,15.8947368 1,15.8947368 C1.55228475,15.8947368 2,15.4470216 2,14.8947368 L2,1.62315789 Z" id="Stroke-451"></path>
                        <path d="M20.5263158,1.62315789 C20.5272074,1.56380988 20.527657,1.49799556 20.5246677,1.44217898 C20.5103289,1.17444252 20.4422346,0.941283891 20.191287,0.706544517 C19.953795,0.48439158 19.7408746,0.431269983 19.4851157,0.421401474 C19.436078,0.419509343 19.3731293,0.42022551 19.3153684,0.421052632 L13.8416842,0.421052632 C12.1780066,0.421052632 10.2903525,1.33534092 9.51001919,2.64112744 C9.22670936,3.1152097 9.38136097,3.7291973 9.85544323,4.01250712 C10.3295255,4.29581695 10.9435131,4.14116534 11.2268229,3.66708308 C11.6181046,3.01232392 12.8388527,2.42105263 13.8416842,2.42105263 L19.3153684,2.42105263 C19.4163181,2.42030081 19.4176319,2.42028586 19.4080027,2.41991432 C19.2174941,2.4125635 19.0400788,2.36830007 18.8250287,2.16713969 C18.5012006,1.86422698 18.5263158,2.33318215 18.5263158,1.62315789 L18.5263158,14.8947368 C18.5263158,15.4470216 18.974031,15.8947368 19.5263158,15.8947368 C20.0786005,15.8947368 20.5263158,15.4470216 20.5263158,14.8947368 L20.5263158,1.62315789 Z" id="Stroke-452"></path>
                        <path d="M7.28884211,16.3157895 C8.23822206,16.3157895 9.23204721,16.7560173 9.67659776,17.3428126 C10.0101033,17.7830313 10.6373307,17.8695394 11.0775494,17.5360338 C11.5177681,17.2025283 11.6042762,16.5753009 11.2707707,16.1350822 C10.4267123,15.020947 8.8348021,14.3157895 7.28884211,14.3157895 L1.42105263,14.3157895 C0.868767882,14.3157895 0.421052632,14.7635047 0.421052632,15.3157895 C0.421052632,15.8680742 0.868767882,16.3157895 1.42105263,16.3157895 L7.28884211,16.3157895 Z" id="Stroke-453"></path>
                        <path d="M13.6585263,14.3157895 C12.1125663,14.3157895 10.5206561,15.020947 9.67659776,16.1350822 C9.34309221,16.5753009 9.42960031,17.2025283 9.86981901,17.5360338 C10.3100377,17.8695394 10.9372651,17.7830313 11.2707707,17.3428126 C11.7153212,16.7560173 12.7091464,16.3157895 13.6585263,16.3157895 L19.5263158,16.3157895 C20.0786005,16.3157895 20.5263158,15.8680742 20.5263158,15.3157895 C20.5263158,14.7635047 20.0786005,14.3157895 19.5263158,14.3157895 L13.6585263,14.3157895 Z" id="Stroke-454"></path>
                        <polygon id="Line" points="16.3162278 6.9486833 17.2649111 6.63245553 16.6324555 4.73508894 15.6837722 5.0513167 12.6837722 6.0513167 11.7350889 6.36754447 12.3675445 8.26491106 13.3162278 7.9486833"></polygon>
                        <polygon id="Line" points="16.3162278 10.9486833 17.2649111 10.6324555 16.6324555 8.73508894 15.6837722 9.0513167 12.6837722 10.0513167 11.7350889 10.3675445 12.3675445 12.2649111 13.3162278 11.9486833"></polygon>
                    </g>
                </g>
            </g>
        </g>
    </g>
</svg>