<?xml version="1.0" encoding="UTF-8"?>
<svg width="105px" height="26px" viewBox="0 0 105 26" version="1.1" xmlns="http://www.w3.org/2000/svg" xmlns:xlink="http://www.w3.org/1999/xlink">
    <!-- Generator: Sketch 47.1 (45422) - http://www.bohemiancoding.com/sketch -->
    <title>Group 535</title>
    <desc>Created with Sketch.</desc>
    <defs></defs>
    <g id="Symbols" stroke="none" stroke-width="1" fill="none" fill-rule="evenodd" opacity="0.9">
        <g id="Nubabi-Header-Desktop" transform="translate(-119.000000, -21.000000)" fill="#EA3154">
            <g id="Page-20">
                <g transform="translate(119.000000, 21.000000)">
                    <g id="Group-535">
                        <path d="M102.055685,6.18471905 C103.596763,6.24662381 104.902434,5.05279048 104.965188,3.51971905 C105.027631,1.9863381 103.823429,0.697171429 102.282351,0.63557619 C100.735653,0.573361905 99.430295,1.76162381 99.3678526,3.29500476 C99.305098,4.82807619 100.508987,6.12281429 102.055685,6.18471905" id="Fill-521"></path>
                        <path d="M73.5250394,15.4526048 L73.5250394,15.4937714 C73.4775832,18.2219143 71.6705004,20.4257238 69.4653474,20.4257238 C67.2189825,20.4257238 65.3941037,18.1572238 65.3941037,15.3699619 C65.3941037,12.5830095 67.2189825,10.3203905 69.4653474,10.3203905 C71.6823645,10.3203905 73.4894472,12.5356524 73.5250394,15.2817476 L73.5250394,15.3346762 C73.5256638,15.3359143 73.5250394,15.3368429 73.5256638,15.338081 C73.5253516,15.3758429 73.5250394,15.4132952 73.5250394,15.4510571 L73.5250394,15.4526048 M79.4414558,8.43724762 C79.6468913,7.78136667 79.3196931,7.08153333 78.6827808,6.81255714 L76.7152211,5.98179524 C75.9899527,5.67536667 75.1510392,6.04710476 74.9075139,6.79058095 C74.842886,6.98836667 74.7745116,7.20658095 74.7042639,7.44212857 C73.2365556,6.24767619 71.4251018,5.54134286 69.4653474,5.54134286 C64.5620588,5.54134286 60.5738634,9.94927143 60.5738634,15.3699619 C60.5738634,20.7912714 64.5620588,25.1988905 69.4653474,25.1988905 C71.4625673,25.1988905 73.30493,24.4677952 74.7910588,23.2247476 C74.7910588,23.2247476 74.7913711,23.2241286 74.7916833,23.223819 C74.9943088,23.8112952 75.2222235,24.4006286 75.4844816,24.990581 C75.7982546,25.6959857 76.6540275,25.9909619 77.3440159,25.6350095 L79.2322738,24.6615571 C79.8588832,24.3384143 80.1223901,23.5912238 79.8432726,22.9483429 C77.2644019,17.0057952 78.6696679,10.9035333 79.4414558,8.43724762" id="Fill-523"></path>
                        <path d="M104.947985,9.37655952 C104.933312,8.63339286 104.308263,8.04963095 103.558955,8.07222619 L101.437162,8.1359881 C100.699093,8.15827381 100.11713,8.76153571 100.130867,9.49355952 C100.197056,13.0472024 100.131804,18.4985357 99.3756267,23.3165833 C99.264167,24.0260119 99.7477833,24.6917976 100.459939,24.8236548 L102.548324,25.21025 C103.300443,25.3495357 104.011974,24.840369 104.130615,24.0910119 C104.919262,19.1064405 105.030722,13.6021786 104.947985,9.37655952" id="Fill-525"></path>
                        <path d="M38.5625465,7.21744524 L36.4416907,7.14996905 C35.6976896,7.12644524 35.075139,7.70525476 35.0514109,8.44285 L34.8097589,15.9528262 C34.7872796,18.3528738 33.0994618,20.2920405 31.0410484,20.2920405 L31.0110761,20.2920405 C30.0538343,20.2833738 29.1437364,19.8506595 28.447816,19.0737548 C27.6913265,18.2290643 27.28108,17.0968262 27.2910707,15.9376595 L27.5399037,8.20513571 C27.5636318,7.46754048 26.9797954,6.85035 26.2354821,6.82713571 L24.1146264,6.75996905 C23.3706253,6.73644524 22.7483869,7.31556429 22.7246588,8.05315952 L22.474577,15.83985 C22.4517856,18.238969 23.2941334,20.5136595 24.8455146,22.2457548 C26.4568404,24.0443976 28.63046,25.0469452 30.966742,25.0679929 C30.9917189,25.0686119 31.0160715,25.0686119 31.0410484,25.0686119 C35.7357795,25.0686119 39.5809818,21.0153976 39.6262526,16.0509452 L39.8666558,8.59575476 C39.8903839,7.85815952 39.3065475,7.24096905 38.5625465,7.21744524" id="Fill-527"></path>
                        <path d="M19.6735363,0.420921429 L17.554866,0.420921429 C16.8105528,0.420921429 16.2070471,1.01923095 16.2070471,1.75713571 L16.2070471,17.2794452 L5.49755285,2.78135 C5.08231096,2.21956429 4.35922809,1.97194524 3.6826648,2.16013571 L1.25833903,2.83489762 C0.509030359,3.04351667 0.00137373257,3.73375476 0.0300972317,4.50477857 L0.75130683,23.7809929 C0.778781481,24.5185881 1.40414201,25.0939929 2.14783087,25.0670643 L4.26868663,24.9890643 C5.0126877,24.9618262 5.59308971,24.34185 5.56561506,23.6042548 L5.06888585,10.2851357 L15.7640183,24.77085 C16.183319,25.3388262 16.9167048,25.5852071 17.5976391,25.3871119 L19.8109096,24.7436119 C20.5283726,24.5349929 21.0213553,23.8822071 21.0213553,23.1408976 L21.0213553,1.75713571 C21.0213553,1.01923095 20.4178496,0.420921429 19.6735363,0.420921429" id="Fill-529"></path>
                        <path d="M50.2223826,20.3082595 C47.8448886,20.3082595 45.9194776,18.0868071 45.9194776,15.3410214 C45.9194776,15.2979976 45.9238485,15.2562119 45.9247852,15.2134976 L45.952572,14.7495214 C46.2057759,12.2835452 48.0184785,10.3737833 50.2223826,10.3737833 C52.5939446,10.3737833 54.5196679,12.5952357 54.5196679,15.3410214 C54.5196679,18.0868071 52.5939446,20.3082595 50.2223826,20.3082595 M50.2223826,5.59473571 C48.8751881,5.59473571 47.5969924,5.90983095 46.4452425,6.47099762 L46.7181157,1.88478333 C46.7621376,1.14780714 46.1951607,0.51545 45.4517841,0.472116667 L43.333426,0.348307143 C42.5903616,0.30497381 41.9525126,0.867069048 41.9088029,1.60342619 L41.154811,14.2706881 C41.1189067,14.6223071 41.0989251,14.9791881 41.0989251,15.3410214 C41.0989251,20.7208548 45.1882772,25.0869976 50.2223826,25.0869976 C55.2624201,25.0869976 59.3402203,20.7208548 59.3402203,15.3410214 C59.3402203,9.9611881 55.2624201,5.59473571 50.2223826,5.59473571" id="Fill-531"></path>
                        <path d="M89.4585264,20.3082595 C87.0810324,20.3082595 85.1553091,18.0868071 85.1553091,15.3410214 C85.1553091,15.1760452 85.1631144,15.0132357 85.1768517,14.8525929 L85.1837204,14.853831 L85.3794773,13.7664738 C85.9498885,11.7948071 87.5584044,10.3737833 89.4585264,10.3737833 C91.8300883,10.3737833 93.7558116,12.5952357 93.7558116,15.3410214 C93.7558116,18.0868071 91.8300883,20.3082595 89.4585264,20.3082595 M89.4585264,5.59473571 C88.524076,5.59473571 87.6227201,5.74578333 86.7735036,6.02497381 L87.4703607,2.1546881 C87.6011775,1.42792619 87.1131902,0.733664286 86.3804288,0.604283333 L84.2907942,0.234711905 C83.5580328,0.105021429 82.8580536,0.588807143 82.7272368,1.31525952 L80.6763165,12.703569 C80.4555826,13.5426881 80.3350688,14.4266881 80.3350688,15.3410214 C80.3350688,20.7208548 84.4244209,25.0869976 89.4585264,25.0869976 C94.4985638,25.0869976 98.5763641,20.7208548 98.5763641,15.3410214 C98.5763641,9.9611881 94.4985638,5.59473571 89.4585264,5.59473571" id="Fill-533"></path>
                    </g>
                </g>
            </g>
        </g>
    </g>
</svg>