<?xml version="1.0" encoding="UTF-8"?>
<svg width="33px" height="32px" viewBox="0 0 33 32" version="1.1" xmlns="http://www.w3.org/2000/svg" xmlns:xlink="http://www.w3.org/1999/xlink">
    <!-- Generator: Sketch 47.1 (45422) - http://www.bohemiancoding.com/sketch -->
    <title>moment</title>
    <desc>Created with Sketch.</desc>
    <defs></defs>
    <g id="Symbols" stroke="none" stroke-width="1" fill="none" fill-rule="evenodd">
        <g id="//-SIDEBAR-Memories-Ad" transform="translate(-103.000000, -84.000000)">
            <g id="Group-18">
                <g id="Group-2" transform="translate(90.000000, 74.000000)">
                    <g id="moment" transform="translate(13.000000, 10.000000)">
                        <path d="M26.2562825,30.2035348 C26.2562825,31.1956327 25.6121044,32 24.8175821,32 L1.43870041,32 C0.643818434,32 0,31.1956327 0,30.2035348 L0,8.19683669 C0,7.2042897 0.643818434,6.40037154 1.43870041,6.40037154 L24.8175821,6.40037154 C25.6121044,6.40037154 26.2562825,7.2042897 26.2562825,8.19683669 L26.2562825,30.2035348 Z M2.51772572,21.9008733 L2.51772572,26.3111111 L23.7385568,26.3111111 L23.7385568,21.8397829 L23.7385568,9.24481598 L2.51772572,9.24481598 L2.51772572,21.9008733 Z M29.5573806,22.1031271 C29.4516361,22.6069493 29.0027616,22.9532604 28.5020938,22.9532604 C28.4294395,22.9532604 28.3553464,22.9461493 28.281613,22.9308604 C27.69822,22.8110382 27.3230788,22.246416 27.4442893,21.6697049 L30.6439591,6.43770487 L10.017671,2.31966043 L9.50801134,4.58917154 C9.3785283,5.16410487 8.80232878,5.52783821 8.22073414,5.3991271 C7.63877983,5.2711271 7.27191122,4.7015271 7.40103458,4.12659376 L8.14016692,0.83557154 C8.26749191,0.268460428 8.83110279,-0.0938506827 9.40730231,0.0213493173 L32.1344527,4.55930487 C32.4160783,4.6151271 32.6631751,4.78010487 32.8214321,5.01726043 C32.9796892,5.25406043 33.0357985,5.54348265 32.9775311,5.8215271 L29.5573806,22.1031271 Z" id="Combined-Shape" fill="#9EABBC"></path>
                        <rect id="Rectangle-26" fill="#FFFFFF" x="3" y="9" width="21" height="17"></rect>
                        <g id="Group-8" transform="translate(8.000000, 13.000000)" fill="#EA3154">
                            <path d="M0.40725,4.32743923 L4.8595,9.92805719 C4.93625,10.0246377 5.06175,10.0233219 5.1375,9.92805719 L9.5895,4.32743923 L9.412,4.56691683 C9.674,4.22191119 9.86175,3.80611491 9.9475,3.34900217 C9.98175,3.16610444 10,2.97662765 10,2.78267711 C10,1.24712567 8.87025,0.00210529761 7.4765,0.00210529761 C6.32675,0.00210529761 5.35675,0.849487584 5.0525,2.00819075 L4.9475,2.00608546 C4.643,0.847119124 3.673,0 2.52325,0 C1.12975,0 0,1.24475721 0,2.78057181 C0,2.97452236 0.018,3.16373598 0.05225,3.34663371 C0.138,3.80374645 0.32575,4.21980589 0.588,4.56481154" id="Stroke-1"></path>
                        </g>
                    </g>
                </g>
            </g>
        </g>
    </g>
</svg>