<?xml version="1.0" encoding="UTF-8"?>
<svg width="13px" height="18px" viewBox="0 0 13 18" version="1.1" xmlns="http://www.w3.org/2000/svg" xmlns:xlink="http://www.w3.org/1999/xlink">
    <!-- Generator: Sketch 47.1 (45422) - http://www.bohemiancoding.com/sketch -->
    <title>Shape</title>
    <desc>Created with Sketch.</desc>
    <defs></defs>
    <g id="Symbols" stroke="none" stroke-width="1" fill="none" fill-rule="evenodd">
        <g id="Menu---Settings---Family-" transform="translate(-18.000000, -232.000000)" fill="#EA3154">
            <g id="Shape">
                <path d="M24.4971037,241.010099 C26.6001665,241.010099 28.2358541,238.828014 28.2358541,236.569162 L28.2358541,235.861495 C28.2358541,233.602727 26.6001665,232 24.4971037,232 C22.3939572,232 20.7582697,233.602643 20.7582697,235.861495 L20.7582697,236.569162 C20.7582697,238.828014 22.3939572,241.010099 24.4971037,241.010099 L24.4971037,241.010099 Z M30.4690179,244.741274 C30.467845,244.729541 30.4643265,244.718394 30.4631537,244.706745 C30.4455611,244.565446 30.4185859,244.427248 30.3811389,244.2919 C30.3811389,244.290643 30.3811389,244.289553 30.3799661,244.28838 C30.3014698,244.00067 30.1690231,243.72352 29.9711489,243.450477 L29.9711489,243.449304 C29.6466084,242.99993 29.1570331,242.541589 28.3615988,242.094646 C27.9410533,241.858394 27.7559128,241.750115 27.495962,241.750115 C27.0824535,241.750115 26.7216388,242.071767 26.1137746,242.630173 L26.112518,242.630173 L25.5596095,243.138715 C25.5396713,243.157571 24.9435354,244.000084 24.4971875,244.000084 C24.0508396,244.000084 23.45462,243.157487 23.4346817,243.138715 L22.8817733,242.630173 L22.8806004,242.630173 C22.2727362,242.071767 21.9119216,241.750115 21.498413,241.750115 C21.2383785,241.750115 21.0063245,241.858394 20.6327762,242.094646 C19.8615527,242.581649 19.3475991,242.999344 19.024399,243.448047 L19.0231424,243.448633 C19.0219695,243.449807 19.0219695,243.45165 19.0208805,243.452656 C18.8251844,243.723437 18.6939943,243.998827 18.6155818,244.284776 C18.6144927,244.287123 18.6131523,244.290056 18.6122308,244.292906 C18.5757891,244.427248 18.5488139,244.563603 18.5313051,244.703644 C18.5301323,244.716634 18.5266138,244.72887 18.5253572,244.741776 C18.5089375,244.890618 18.4996386,245.042392 18.4996386,245.19995 C18.4996386,245.217465 18.4993035,248.484768 18.4996386,248.500021 C18.4996386,249.566382 18.9014187,250 19.9990258,250 L28.9955168,250 C30.1025903,250 30.494904,249.589764 30.494904,248.500021 C30.4952391,248.484768 30.4948203,245.217465 30.4948203,245.19995 C30.4947365,245.042476 30.4853538,244.890702 30.4690179,244.741274 L30.4690179,244.741274 Z M17,244.750073 C17.0296031,244.764321 17,244.393893 17,244.750073 L17,244.750073 L17,244.750073 Z M32,244.750073 C32,244.393893 31.9705472,244.764321 32,244.750073 L32,244.750073 L32,244.750073 Z"></path>
            </g>
        </g>
    </g>
</svg>