 <?xml version="1.0" encoding="UTF-8"?>
<svg width="20px" height="17px" viewBox="0 0 20 17" version="1.1" xmlns="http://www.w3.org/2000/svg" xmlns:xlink="http://www.w3.org/1999/xlink">
    <!-- Generator: Sketch 47.1 (45422) - http://www.bohemiancoding.com/sketch -->
    <title>Icon 24px</title>
    <desc>Created with Sketch.</desc>
    <defs></defs>
    <g id="Symbols" stroke="none" stroke-width="1" fill="none" fill-rule="evenodd">
        <g id="Menu---Library" transform="translate(-17.000000, -27.000000)" fill="#9EABBC">
            <g id="Group-7">
                <g id="Icon-24px" transform="translate(17.000000, 27.000000)">
                    <circle id="Oval" cx="12.2727273" cy="6.81818182" r="1.13636364"></circle>
                    <circle id="Oval" cx="7.72727273" cy="6.81818182" r="1.13636364"></circle>
                    <path d="M19.9454545,8.78181818 C19.9818182,8.59090909 20,8.39090909 20,8.18181818 C20,7.97272727 19.9818182,7.77272727 19.9454545,7.58181818 C19.7181818,6.20909091 18.7090909,5.09090909 17.3909091,4.7 C16.9090909,3.68181818 16.2272727,2.79090909 15.4,2.05454545 C13.9636364,0.772727273 12.0727273,0 10,0 C7.92727273,0 6.03636364,0.772727273 4.6,2.05454545 C3.76363636,2.79090909 3.08181818,3.69090909 2.60909091,4.7 C1.29090909,5.09090909 0.281818182,6.2 0.0545454545,7.58181818 C0.0181818182,7.77272727 0,7.97272727 0,8.18181818 C0,8.39090909 0.0181818182,8.59090909 0.0545454545,8.78181818 C0.281818182,10.1545455 1.29090909,11.2727273 2.60909091,11.6636364 C3.08181818,12.6727273 3.76363636,13.5636364 4.58181818,14.2909091 C6.01818182,15.5818182 7.91818182,16.3636364 10,16.3636364 C12.0818182,16.3636364 13.9818182,15.5818182 15.4272727,14.2909091 C16.2454545,13.5636364 16.9272727,12.6636364 17.4,11.6636364 C18.7090909,11.2727273 19.7181818,10.1636364 19.9454545,8.78181818 L19.9454545,8.78181818 Z M16.3636364,10 C16.2727273,10 16.1909091,9.98181818 16.1,9.97272727 C15.9181818,10.5818182 15.6545455,11.1454545 15.3181818,11.6636364 C14.1818182,13.4 12.2272727,14.5454545 10,14.5454545 C7.77272727,14.5454545 5.81818182,13.4 4.68181818,11.6636364 C4.34545455,11.1454545 4.08181818,10.5818182 3.9,9.97272727 C3.80909091,9.98181818 3.72727273,10 3.63636364,10 C2.63636364,10 1.81818182,9.18181818 1.81818182,8.18181818 C1.81818182,7.18181818 2.63636364,6.36363636 3.63636364,6.36363636 C3.72727273,6.36363636 3.80909091,6.38181818 3.9,6.39090909 C4.08181818,5.78181818 4.34545455,5.21818182 4.68181818,4.7 C5.81818182,2.96363636 7.77272727,1.81818182 10,1.81818182 C12.2272727,1.81818182 14.1818182,2.96363636 15.3181818,4.7 C15.6545455,5.21818182 15.9181818,5.78181818 16.1,6.39090909 C16.1909091,6.38181818 16.2727273,6.36363636 16.3636364,6.36363636 C17.3636364,6.36363636 18.1818182,7.18181818 18.1818182,8.18181818 C18.1818182,9.18181818 17.3636364,10 16.3636364,10 L16.3636364,10 Z M5.90909091,10 C6.6,11.6090909 8.17272727,12.7272727 10,12.7272727 C11.8272727,12.7272727 13.4,11.6090909 14.0909091,10 L5.90909091,10 L5.90909091,10 Z" id="Shape"></path>
                </g>
            </g>
        </g>
    </g>
</svg>