<?xml version="1.0" encoding="UTF-8" standalone="no"?>
<svg width="21px" height="19px" viewBox="0 0 21 19" version="1.1" xmlns="http://www.w3.org/2000/svg" xmlns:xlink="http://www.w3.org/1999/xlink">
    <!-- Generator: Sketch 46.2 (44496) - http://www.bohemiancoding.com/sketch -->
    <title>Page 1</title>
    <desc>Created with Sketch.</desc>
    <defs></defs>
    <g id="Design" stroke="none" stroke-width="1" fill="none" fill-rule="evenodd">
        <g id="Nubabi-App-Stimulation-Activity-Detail-Web-01a" transform="translate(-772.000000, -388.000000)">
            <g id="Page-1" transform="translate(770.000000, 385.000000)">
                <polygon id="Stroke-1" stroke-opacity="0.00784313771" stroke="#000000" stroke-width="1.33333335e-11" points="0 0 24.9999984 0 24.9999984 24.9999984 0 24.9999984"></polygon>
                <path d="M19.7916655,8.33333283 L5.20833302,8.33333283 C3.47916636,8.33333283 2.08333321,9.72916624 2.08333321,11.4583326 L2.08333321,17.7083323 L6.24999963,17.7083323 L6.24999963,21.8749987 L18.7499989,21.8749987 L18.7499989,17.7083323 L22.9166653,17.7083323 L22.9166653,11.4583326 C22.9166653,9.72916624 21.5208318,8.33333283 19.7916655,8.33333283 Z M16.6666657,19.7916655 L8.33333283,19.7916655 L8.33333283,14.5833325 L16.6666657,14.5833325 L16.6666657,19.7916655 Z M19.7916655,12.4999993 C19.2187496,12.4999993 18.7499989,12.0312494 18.7499989,11.4583326 C18.7499989,10.8854158 19.2187496,10.416666 19.7916655,10.416666 C20.3645813,10.416666 20.8333321,10.8854158 20.8333321,11.4583326 C20.8333321,12.0312494 20.3645813,12.4999993 19.7916655,12.4999993 Z M18.7499989,3.12499981 L6.24999963,3.12499981 L6.24999963,7.29166623 L18.7499989,7.29166623 L18.7499989,3.12499981 Z" id="Fill-2" fill="#9EABBC"></path>
            </g>
        </g>
    </g>
</svg>