<svg xmlns="http://www.w3.org/2000/svg" xmlns:xlink="http://www.w3.org/1999/xlink" width="46" height="46" viewBox="0 0 46 46">
    <defs>
        <circle id="a" cx="23" cy="23" r="23"/>
    </defs>
    <g fill="none" fill-rule="evenodd">
        <g>
            <use fill="#FFF" xlink:href="#a"/>
            <circle cx="23" cy="23" r="22.5" stroke="#CFD6DF"/>
        </g>
        <path fill="#EA3154" d="M22.245 33h3.511c.975 0 1.752-.811 1.752-1.812v-6.346c0-.5.39-.904.869-.904h2.646c.964 0 1.262-.65.68-1.433l-6.636-8.915c-.589-.791-1.55-.782-2.133 0L16.3 22.505c-.59.792-.279 1.433.679 1.433h2.646c.48 0 .87.41.87.904v6.346c0 1.008.784 1.812 1.751 1.812z"/>
    </g>
</svg>
