<?xml version="1.0" encoding="UTF-8"?>
<svg width="14px" height="16px" viewBox="0 0 14 16" version="1.1" xmlns="http://www.w3.org/2000/svg" xmlns:xlink="http://www.w3.org/1999/xlink">
    <!-- Generator: Sketch 47.1 (45422) - http://www.bohemiancoding.com/sketch -->
    <title>Shape</title>
    <desc>Created with Sketch.</desc>
    <defs></defs>
    <g id="Design" stroke="none" stroke-width="1" fill="none" fill-rule="evenodd">
        <g id="Nubabi-App-Baby-Profile-Empty-State-Web-01a" transform="translate(-138.000000, -338.000000)" fill="#9EABBC">
            <g id="icon" transform="translate(138.000000, 338.000000)">
                <g id="Capa_1">
                    <g id="Group">
                        <path d="M13.8462968,0.969586777 C13.8742022,0.722677686 13.7916559,0.475735537 13.619372,0.291140496 C13.4461935,0.10614876 13.1994839,0 12.9424172,0 L0.933230108,0 C0.674855914,0 0.428146237,0.10614876 0.256103226,0.29061157 C0.0840258065,0.475206612 0.00151397849,0.722115702 0.0293849462,0.969057851 C0.233049462,2.76806612 1.19015914,4.40165289 2.6752,5.51140496 C1.4427871,6.61077686 0.671380645,8.18056198 0.671380645,9.92366942 C0.671380645,11.354843 1.19136344,12.6690909 2.05928602,13.7022149 L1.17894194,14.6433388 C0.872154839,14.9713388 0.900266667,15.4760992 1.24170323,15.770843 C1.40022366,15.9080331 1.5987957,15.9755702 1.79685161,15.9755702 C2.02436129,15.9755702 2.25107957,15.8862149 2.41531183,15.7109752 L3.26537634,14.802314 C4.29735914,15.5206612 5.56596989,15.9444298 6.93784086,15.9444298 C8.30971183,15.9444298 9.57832258,15.5206942 10.6103054,14.802314 L11.4604043,15.7110083 C11.6246022,15.8862479 11.8513204,15.9756033 12.0788645,15.9756033 C12.2766108,15.9756033 12.4754581,15.9080661 12.6339785,15.770876 C12.9754151,15.4761322 13.0035269,14.9713719 12.6967398,14.6433719 L11.8163613,13.7022479 C12.6842495,12.669124 13.2042667,11.354876 13.2042667,9.92370248 C13.2042667,8.18059504 12.4328602,6.61080992 11.2004473,5.51143802 C12.6855226,4.40165289 13.6426667,2.76813223 13.8462968,0.969586777 L13.8462968,0.969586777 Z M6.93784086,14.0221488 C4.58195269,14.0221488 2.67224086,12.1876364 2.67224086,9.92366942 C2.67224086,7.66036364 4.58195269,5.82578512 6.93784086,5.82578512 C9.29369462,5.82578512 11.203372,7.66036364 11.203372,9.92366942 C11.2034065,12.1876364 9.29369462,14.0221488 6.93784086,14.0221488 L6.93784086,14.0221488 Z" id="Shape"></path>
                    </g>
                </g>
            </g>
        </g>
    </g>
</svg>