<?xml version="1.0" standalone="no"?>
<!DOCTYPE svg PUBLIC "-//W3C//DTD SVG 20010904//EN"
 "http://www.w3.org/TR/2001/REC-SVG-20010904/DTD/svg10.dtd">
<svg version="1.0" xmlns="http://www.w3.org/2000/svg"
 width="1024.000000pt" height="1024.000000pt" viewBox="0 0 1024.000000 1024.000000"
 preserveAspectRatio="xMidYMid meet">
<metadata>
Created by potrace 1.11, written by Peter Selinger 2001-2013
</metadata>
<g transform="translate(0.000000,1024.000000) scale(0.100000,-0.100000)"
fill="#000000" stroke="none">
<path d="M0 5120 l0 -5120 5120 0 5120 0 0 5120 0 5120 -5120 0 -5120 0 0
-5120z m8682 4283 c191 -55 334 -136 464 -267 133 -133 217 -280 267 -470 l22
-81 0 -3475 0 -3475 -22 -81 c-50 -190 -134 -337 -267 -470 -133 -133 -280
-217 -470 -267 l-81 -22 -3475 0 -3475 0 -81 22 c-190 50 -337 134 -470 267
-133 133 -217 280 -267 470 l-22 81 0 3475 0 3475 22 81 c91 341 320 593 642
708 161 58 -66 54 3681 53 l3455 -2 77 -22z"/>
<path d="M1706 8819 c-62 -15 -153 -68 -197 -116 -22 -24 -55 -74 -72 -111
l-32 -67 0 -3416 0 -3415 37 -76 c45 -91 103 -147 196 -191 l67 -32 3415 0
3415 0 67 32 c93 44 151 100 196 191 l37 76 0 3416 0 3416 -37 76 c-45 91
-103 147 -196 191 l-67 32 -3395 2 c-2024 0 -3411 -3 -3434 -8z m5280 -1116
c66 -22 145 -101 167 -168 15 -43 25 -328 83 -2285 35 -1229 62 -2253 59
-2275 -13 -93 -88 -203 -169 -250 -23 -13 -160 -62 -306 -109 -225 -73 -275
-86 -332 -86 -83 0 -159 27 -218 77 -24 21 -529 684 -1137 1496 -602 802
-1096 1457 -1097 1455 -2 -1 39 -617 91 -1368 76 -1116 92 -1374 83 -1416 -20
-97 -89 -177 -179 -209 -28 -9 -138 -21 -305 -32 -222 -14 -269 -15 -309 -3
-98 27 -176 112 -197 214 -5 28 -71 970 -146 2093 l-136 2041 21 70 c25 84 96
169 171 207 45 23 516 119 646 132 97 10 204 -35 279 -118 22 -24 524 -690
1115 -1478 l1075 -1435 3 65 c1 35 -15 707 -38 1492 -48 1710 -48 1665 -16
1732 26 56 89 119 145 143 39 17 190 27 452 30 113 2 156 -2 195 -15z"/>
</g>
</svg>
