<?xml version="1.0" encoding="UTF-8"?>
<svg width="27px" height="22px" viewBox="0 0 27 22" version="1.1" xmlns="http://www.w3.org/2000/svg" xmlns:xlink="http://www.w3.org/1999/xlink">
    <!-- Generator: Sketch 47.1 (45422) - http://www.bohemiancoding.com/sketch -->
    <title>Group</title>
    <desc>Created with Sketch.</desc>
    <defs></defs>
    <g id="Design" stroke="none" stroke-width="1" fill="none" fill-rule="evenodd">
        <g id="Nubabi-App-Baby-Profile-Empty-State-Web-01a" transform="translate(-953.000000, -750.000000)" fill="#748294">
            <g id="Group-9" transform="translate(948.000000, 742.000000)">
                <g id="Group" transform="translate(5.000000, 8.000000)">
                    <path d="M26.6964551,16.0074169 C26.4791418,15.7578159 26.1773972,15.6073815 25.8466985,15.5838005 C25.5160527,15.5601668 25.1955514,15.6665446 24.9449516,15.8830901 C24.2505849,16.4828274 23.4421458,17.0182959 22.5467392,17.482916 C22.012993,16.1972758 20.5627587,12.1839732 21.3670766,8.19946263 L24.0255048,9.96503997 C24.5551827,10.3167553 25.2379784,10.3591801 25.8073359,10.0755234 C26.5447638,9.70822776 26.930253,8.89273452 26.7449054,8.0925058 L25.8578469,4.26306156 C25.7519641,3.80602111 25.5200154,3.38908946 25.1870448,3.05737589 L24.8864097,2.7578757 L24.886938,1.65814677 C24.8870437,1.34222407 24.8870965,1.02635401 24.8869909,0.789385663 L24.8865682,0.421458359 C24.8853001,0.11222046 24.6487547,0 24.4900363,0 C23.2879713,0 22.6937281,0.977928668 22.4816456,1.69546587 C21.4134135,1.77131469 20.4933854,2.23782966 19.6088102,3.14654168 C18.7207477,4.0588856 17.885838,5.39937267 16.9645419,6.92908702 C16.9185748,7.00535693 16.8719209,7.08194266 16.8248971,7.15852839 L10.6489322,7.15852839 C9.47534565,7.15852839 8.22340375,6.98209172 6.8216198,6.61921749 C5.46263278,6.26739687 2.99145427,6.28871455 1.70944885,10.3833402 C1.66084001,10.5385644 1.7127775,10.7075794 1.84021721,10.8091673 L3.95364519,12.4935269 C4.06354345,12.5811136 4.21185326,12.6040104 4.34325564,12.5537954 C4.47465803,12.5034752 4.56944527,12.3875702 4.59221746,12.2491895 C4.70264407,11.5787091 5.20468889,9.72059728 6.18859529,9.18202329 C6.4627069,9.03190474 6.75879816,8.99384874 7.08659084,9.06775002 L4.40665848,17.4585454 C3.52974438,16.9995047 2.73742023,16.4720896 2.0551,15.882669 C1.80444744,15.6661236 1.48405176,15.5596931 1.15319461,15.583432 C0.822495964,15.6070131 0.520751284,15.7574474 0.303543723,16.0069432 C0.0862833259,16.2565442 -0.0203919516,16.5755725 0.00322560608,16.9051806 C0.0268431638,17.2347361 0.177794758,17.5353943 0.428394481,17.7518345 C3.55378462,20.4516524 8.3183495,22 13.5002107,22 C18.6817021,22 23.4460557,20.4517577 26.5716572,17.7522029 C26.822204,17.5357627 26.9732085,17.2350519 26.9967732,16.9055491 C27.0203908,16.5760462 26.9137683,16.257018 26.6964551,16.0074169 L26.6964551,16.0074169 Z M16.311704,7.94807196 C15.4994079,9.11301718 14.4946843,10.1061577 13.0775251,10.1061577 C12.4604042,10.1061577 11.8669536,9.94488029 11.361316,9.63974802 C10.6910951,9.23529116 10.2500227,8.61681536 10.1279194,7.93701835 C10.3031226,7.94412424 10.4768463,7.94807196 10.6489322,7.94807196 L16.311704,7.94807196 L16.311704,7.94807196 Z M7.96022913,8.93626469 C8.02215257,8.74235279 7.9259916,8.53333429 7.73810785,8.45348512 C7.04168049,8.15745891 6.39190706,8.16977579 5.80685736,8.4900673 C4.72768819,9.0808038 4.1837975,10.6059388 3.95237714,11.4815426 L2.54932513,10.363391 C3.02574464,8.96747798 3.6866664,8.03250048 4.51597555,7.58230274 C5.13182846,7.24800999 5.84046086,7.1810567 6.62221787,7.38344303 C7.57780434,7.63083335 8.4693011,7.79490051 9.3179481,7.87964485 C9.4264198,8.85946842 10.019342,9.75307384 10.9506241,10.315071 C11.5801614,10.6949467 12.3155815,10.8957539 13.0774723,10.8957539 C15.4998306,10.8957539 16.8947459,8.57965418 17.6441147,7.33538615 C18.5397326,5.84835978 19.3484887,4.54813943 20.177745,3.69622191 C21.0005553,2.85088393 21.8090472,2.47395583 22.799241,2.47395583 C22.9934122,2.47395583 23.1592107,2.33236435 23.1905422,2.14145271 C23.1911234,2.13776818 23.2532582,1.7697356 23.4629103,1.41717808 C23.6326714,1.13173176 23.8412139,0.945452109 24.0944025,0.854654599 C24.0945082,1.38243816 24.0941384,2.26535842 24.0936628,2.92110067 C24.09361,3.02589942 24.1353502,3.126382 24.2097429,3.20049382 L24.6265109,3.61568847 C24.8543384,3.84265593 25.0130569,4.1278917 25.0854946,4.44065623 L25.9725532,8.27010046 C26.0753186,8.71371868 25.8615982,9.16581133 25.4528612,9.3694083 C25.1372736,9.52663274 24.7587586,9.50320961 24.4650978,9.30813972 L21.3282952,7.22485005 C21.2213557,7.15373849 21.0864133,7.13889507 20.9664763,7.18474123 C20.8464864,7.23064003 20.756243,7.33164897 20.7244888,7.45571259 C19.5958654,11.8631554 21.2468753,16.4206114 21.8253206,17.8105765 L20.7853027,18.2422463 C20.4548682,17.6410352 19.814341,16.6282087 18.8268946,15.689073 C17.2820844,14.2198376 15.4898975,13.474877 13.5000522,13.474877 C11.510207,13.474877 9.71802002,14.2198376 8.17326267,15.689073 C7.17620019,16.6373674 6.53313689,17.6604053 6.20555555,18.2593005 C5.83507162,18.1202355 5.47478499,17.9705381 5.12569952,17.8106818 L7.96022913,8.93626469 L7.96022913,8.93626469 Z M20.0358283,18.5249029 C18.043394,19.1724866 15.8041114,19.5262021 13.5002107,19.5262021 C11.1963629,19.5262021 8.95702744,19.1724866 6.96464604,18.5249029 C7.67248591,17.2783189 9.77011602,14.2644205 13.5002107,14.2644205 C17.2305696,14.2644205 19.3280941,17.2783715 20.0358283,18.5249029 L20.0358283,18.5249029 Z M26.2062983,16.8494388 C26.1977389,16.9686599 26.1431068,17.077459 26.0524936,17.1557291 C23.0689144,19.7326414 18.4938184,21.2105091 13.5002636,21.2105091 C8.50628609,21.2105091 3.93103152,19.7324309 0.947610901,17.1553606 C0.760466853,16.9936621 0.740177944,16.7105318 0.902383542,16.5241995 C0.980950227,16.4339284 1.09016162,16.3794499 1.20983448,16.3709228 C1.2208243,16.3701332 1.23170846,16.3697648 1.24259261,16.3697648 C1.35048311,16.3697648 1.4536184,16.4079787 1.53593642,16.4791429 C4.3169963,18.8814608 8.78969678,20.315693 13.5002636,20.315693 C18.2106719,20.315693 22.683161,18.8816187 25.4642737,16.4795113 C25.554887,16.4011886 25.6703858,16.3629747 25.79027,16.3712912 C25.90989,16.3798183 26.0191014,16.4342442 26.0977738,16.5246206 C26.1762348,16.6148917 26.2148048,16.7302704 26.2062983,16.8494388 L26.2062983,16.8494388 Z" id="Shape"></path>
                    <path d="M23.3901721,6 C23.6056511,6 23.7803442,5.854 23.7803442,5.67391304 L23.7803442,5.32608696 C23.7803442,5.146 23.6056511,5 23.3901721,5 C23.1746931,5 23,5.146 23,5.32608696 L23,5.67391304 C23,5.854 23.1746931,6 23.3901721,6 L23.3901721,6 Z" id="Shape"></path>
                </g>
            </g>
        </g>
    </g>
</svg>