<?xml version="1.0" encoding="UTF-8"?>
<svg width="15px" height="18px" viewBox="0 0 15 18" version="1.1" xmlns="http://www.w3.org/2000/svg" xmlns:xlink="http://www.w3.org/1999/xlink">
    <!-- Generator: Sketch 47.1 (45422) - http://www.bohemiancoding.com/sketch -->
    <title>Shape</title>
    <desc>Created with Sketch.</desc>
    <defs></defs>
    <g id="Symbols" stroke="none" stroke-width="1" fill="none" fill-rule="evenodd">
        <g id="Nubabi-Header-Desktop-Empty" transform="translate(-1197.000000, -30.000000)" fill="#748294">
            <g id="Nubabi-Header-Desktop">
                <g id="ic_notifications_none" transform="translate(1194.000000, 28.000000)">
                    <g id="Icon-24px">
                        <path d="M10.5,19.15 C11.4625,19.15 12.25,18.3625 12.25,17.4 L8.75,17.4 C8.75,18.3625 9.5375,19.15 10.5,19.15 L10.5,19.15 Z M15.75,13.9 L15.75,9.525 C15.75,6.83875 14.32375,4.59 11.8125,3.995 L11.8125,3.4 C11.8125,2.67375 11.22625,2.0875 10.5,2.0875 C9.77375,2.0875 9.1875,2.67375 9.1875,3.4 L9.1875,3.995 C6.685,4.59 5.25,6.83 5.25,9.525 L5.25,13.9 L3.5,15.65 L3.5,16.525 L17.5,16.525 L17.5,15.65 L15.75,13.9 L15.75,13.9 Z M14,14.775 L7,14.775 L7,9.525 C7,7.355 8.32125,5.5875 10.5,5.5875 C12.67875,5.5875 14,7.355 14,9.525 L14,14.775 L14,14.775 Z" id="Shape"></path>
                    </g>
                </g>
            </g>
        </g>
    </g>
</svg>