<?xml version="1.0" encoding="UTF-8"?>
<svg width="17px" height="12px" viewBox="0 0 17 12" version="1.1" xmlns="http://www.w3.org/2000/svg" xmlns:xlink="http://www.w3.org/1999/xlink">
    <!-- Generator: Sketch 47.1 (45422) - http://www.bohemiancoding.com/sketch -->
    <title>Icon_29_</title>
    <desc>Created with Sketch.</desc>
    <defs></defs>
    <g id="Symbols" stroke="none" stroke-width="1" fill="none" fill-rule="evenodd">
        <g id="//-SIDEBAR-PARENTING-TIPS-2" transform="translate(-24.000000, -21.000000)" fill-rule="nonzero" fill="#EA3154">
            <path d="M33.0670053,23.7515362 C33.4390088,26.0185503 31.5059907,27.9505278 29.2379695,27.5788779 C27.8644567,27.3536812 26.7564464,26.2462548 26.5314443,24.8735076 C26.1594408,22.6064935 28.0924589,20.6740144 30.36048,21.0461659 C31.7339928,21.2713626 32.8415032,22.3782874 33.0670053,23.7515362 Z M35.5750287,31.7116647 L35.5580285,31.6494723 C35.1410247,30.1352874 34.3385172,28.7725712 33.253007,27.6651448 C33.1210058,27.530729 32.8975037,27.5357445 32.7680025,27.671665 C31.8874943,28.596025 30.5569819,29.1091125 29.1134684,28.8794017 C28.22046,28.736961 27.4204526,28.2965986 26.825947,27.6711635 C26.6974458,27.5357445 26.4739437,27.5342398 26.3434425,27.6671511 C25.2584324,28.7740759 24.4574249,30.1362905 24.039921,31.6494723 L24.0234209,31.7116647 C23.9084198,32.1274511 24.2314228,32.5357143 24.6749269,32.5357143 L34.9240226,32.5357143 C35.3670268,32.5357143 35.6900298,32.1274511 35.5750287,31.7116647 Z M40.9765791,31.7116647 L40.959579,31.6494723 C40.5420751,30.1352874 39.7400676,28.7725712 38.6545575,27.6651448 C38.5225562,27.530729 38.2990541,27.5357445 38.1695529,27.671665 C37.5145468,28.358791 36.6105384,28.8177109 35.5965289,28.9140088 C36.2190347,29.8804991 36.7025392,30.9382718 37.0130421,32.0647572 L37.0345423,32.1429992 C37.0720427,32.2774151 37.0715427,32.4108279 37.0430424,32.5357143 L40.3250731,32.5357143 C40.7685772,32.5357143 41.0915802,32.1274511 40.9765791,31.7116647 Z M38.5105561,23.7515362 C38.285054,22.3782874 37.1770437,21.2713626 35.8040308,21.0461659 C35.2290255,20.9518741 34.6765203,21.0075464 34.1775157,21.178074 C33.8680128,21.2839014 33.7435116,21.6445172 33.9145132,21.9218753 C34.3445172,22.6180292 34.5935195,23.4360602 34.5935195,24.3127727 C34.5935195,25.1904883 34.3440172,26.0095224 33.9130132,26.7061778 C33.7405116,26.9845391 33.8685128,27.342647 34.1790157,27.4504807 C34.3410172,27.507156 34.5085188,27.550791 34.6810204,27.5788779 C36.9495415,27.9505278 38.8825596,26.0185503 38.5105561,23.7515362 Z" id="Icon_29_"></path>
        </g>
    </g>
</svg>