<?xml version="1.0" encoding="UTF-8"?>
<svg width="20px" height="20px" viewBox="0 0 20 20" version="1.1" xmlns="http://www.w3.org/2000/svg" xmlns:xlink="http://www.w3.org/1999/xlink">
    <!-- Generator: Sketch 47.1 (45422) - http://www.bohemiancoding.com/sketch -->
    <title>moment</title>
    <desc>Created with Sketch.</desc>
    <defs></defs>
    <g id="Symbols" stroke="none" stroke-width="1" fill="none" fill-rule="evenodd">
        <g id="Menu---Library" transform="translate(-17.000000, -310.000000)" fill="#9EABBC">
            <g id="Group-7">
                <g id="moment" transform="translate(17.000000, 310.000000)">
                    <path d="M15.9128985,18.1511628 C15.9128985,18.7473754 15.5224875,19.2307692 15.0409588,19.2307692 L0.871939643,19.2307692 C0.39019299,19.2307692 0,18.7473754 0,18.1511628 L0,4.92598359 C0,4.32950102 0.39019299,3.84637713 0.871939643,3.84637713 L15.0409588,3.84637713 C15.5224875,3.84637713 15.9128985,4.32950102 15.9128985,4.92598359 L15.9128985,18.1511628 Z M1.52589437,13.1615825 L1.52589437,15.8119658 L14.3870041,15.8119658 L14.3870041,13.1248695 L14.3870041,5.55577884 L1.52589437,5.55577884 L1.52589437,13.1615825 Z M17.913564,13.2831293 C17.8494764,13.585907 17.5774313,13.7940267 17.2739963,13.7940267 C17.2299633,13.7940267 17.1850584,13.7897532 17.1403715,13.7805652 C16.7868,13.7085566 16.5594417,13.3692404 16.6329026,13.0226592 L18.5720964,3.86881302 L6.07131573,1.3940267 L5.76243111,2.75791559 C5.68395654,3.10342841 5.33474472,3.32201815 4.98226312,3.24466773 C4.62956353,3.16774465 4.40721892,2.82543696 4.48547551,2.47992414 L4.9334345,0.502146358 C5.01060116,0.161334392 5.35218351,-0.0564006507 5.70139534,0.0128301186 L19.4754259,2.73996687 C19.6461081,2.77351388 19.7958637,2.87265918 19.891777,3.01518055 C19.9876904,3.15748824 20.0216961,3.33141986 19.9863825,3.49851388 L17.913564,13.2831293 Z" id="Combined-Shape"></path>
                    <g id="Group-8" transform="translate(4.615385, 7.692308)">
                        <path d="M0.5210814,2.84398884 L3.22440307,6.01416243 C3.27100421,6.06883087 3.34720543,6.06808607 3.39319939,6.01416243 L6.09636926,2.84398884 L5.98859463,2.97954274 C6.14767606,2.78425575 6.26167429,2.54889844 6.31374006,2.29015436 C6.33453601,2.18662694 6.34561707,2.0793755 6.34561707,1.96959175 C6.34561707,1.10040826 5.65965432,0.395676974 4.81339578,0.395676974 C4.11528941,0.395676974 3.52632383,0.875329214 3.341589,1.53120152 L3.277835,1.53000983 C3.09294838,0.873988571 2.50398279,0.394485292 1.80587642,0.394485292 C0.959769682,0.394485292 0.273806933,1.09906762 0.273806933,1.96840006 C0.273806933,2.07818382 0.284736191,2.18528629 0.305532141,2.28881372 C0.357597913,2.5475578 0.471596148,2.78306407 0.630829369,2.97835105" id="Stroke-1"></path>
                        <path d="M3.06257893,6.14861751 C3.19365288,6.30238216 3.42446906,6.30168047 3.555007,6.14863689 L6.25819717,2.9784395 L6.09636926,2.84398884 L5.92997363,2.71508506 L5.822199,2.85063895 C5.6491067,3.06834635 5.97774744,3.32605156 6.15343489,3.11037916 C6.33647741,2.88567774 6.46329696,2.61862202 6.52120759,2.33083158 C6.54500263,2.21237394 6.55713763,2.09152296 6.55713763,1.96959175 C6.55713763,0.986882397 5.77836826,0.186885765 4.81339578,0.186885765 C4.02990448,0.186885765 3.35076185,0.719179111 3.13779832,1.47527304 L3.341589,1.53120152 L3.34559369,1.32244773 L3.28183968,1.32125605 L3.277835,1.53000983 L3.48161698,1.4740505 C3.26850176,0.717867492 2.58939951,0.185694083 1.80587642,0.185694083 C0.84098203,0.185694083 0.0622863639,0.985617449 0.0622863639,1.96840006 C0.0622863639,2.09061918 0.0743308536,2.2113384 0.0980508868,2.32942264 C0.156005538,2.61743193 0.282904594,2.8846488 0.466050868,3.10926326 C0.539296812,3.19909363 0.67244823,3.21330415 0.763452883,3.14100333 C0.854457536,3.06870252 0.868853814,2.93726922 0.79560787,2.84743885 C0.655119197,2.67514057 0.557603321,2.46979714 0.512999663,2.2481365 C0.494658029,2.15682721 0.485327502,2.06330944 0.485327502,1.96840006 C0.485327502,1.21259796 1.07847929,0.6032765 1.80587642,0.6032765 C2.39564135,0.6032765 2.91089682,1.00705261 3.07405301,1.58596917 C3.09911311,1.67488831 3.18034474,1.7370162 3.27383031,1.73876362 L3.33758432,1.7399553 C3.43405428,1.74175851 3.51953384,1.67889166 3.54537968,1.58712999 C3.70840549,1.00833217 4.22368763,0.604468183 4.81339578,0.604468183 C5.5408713,0.604468183 6.1340965,1.21386318 6.1340965,1.96959175 C6.1340965,2.06412462 6.12469249,2.15777798 6.10625881,2.24954544 C6.0616926,2.47101992 5.96422584,2.67626475 5.82375437,2.84870631 L5.98859463,2.97954274 L6.15499026,3.10844652 L6.26276489,2.97289263 C6.43392785,2.75761185 6.11306964,2.50016708 5.93454135,2.70953819 L3.23137148,5.87971178 C3.26950297,5.83500616 3.34791925,5.83476777 3.38625112,5.87973541 L0.68290554,2.70953377 C0.607677345,2.62131399 0.474241708,2.60999532 0.384868704,2.6842528 C0.295495699,2.75851029 0.284029065,2.89022414 0.35925726,2.97844392 L3.06257893,6.14861751 Z" id="Stroke-1" fill-rule="nonzero"></path>
                    </g>
                </g>
            </g>
        </g>
    </g>
</svg>