<?xml version="1.0" encoding="UTF-8"?>
<svg width="19px" height="19px" viewBox="0 0 19 19" version="1.1" xmlns="http://www.w3.org/2000/svg" xmlns:xlink="http://www.w3.org/1999/xlink">
    <!-- Generator: Sketch 47.1 (45422) - http://www.bohemiancoding.com/sketch -->
    <title>Shape</title>
    <desc>Created with Sketch.</desc>
    <defs></defs>
    <g id="Symbols" stroke="none" stroke-width="1" fill="none" fill-rule="evenodd">
        <g id="Menu---Library" transform="translate(-18.000000, -167.000000)" fill="#9EABBC">
            <g id="Group-7">
                <path d="M35.908328,168.095525 C35.2050785,167.392427 34.2728642,167 33.2752313,167 C32.2775985,167 31.3453841,167.392427 30.6421347,168.095525 C30.3313966,168.406196 30.086077,168.765921 29.906176,169.158348 L27.9599742,167.212565 C27.6983,166.950947 27.2730794,166.950947 27.0277598,167.212565 L18.1962556,176.042169 C17.9345815,176.303787 17.9345815,176.712565 18.1962556,176.974182 L27.0277598,185.803787 C27.1585969,185.934596 27.3221433,186 27.5020443,186 C27.6819453,186 27.8454917,185.934596 27.9763288,185.803787 L30.7893264,182.991394 C30.9692275,182.811532 31.034646,182.533563 30.9365182,182.288296 C30.8383904,182.043029 30.6257801,181.879518 30.3641059,181.863167 C29.7916936,181.814114 29.2519905,181.568847 28.8431246,181.17642 C28.3851947,180.718589 28.1398752,180.113597 28.1398752,179.475904 C28.1398752,178.83821 28.3851947,178.233219 28.8431246,177.775387 C29.3010544,177.317556 29.906176,177.072289 30.5440069,177.072289 C31.1818377,177.072289 31.7869593,177.317556 32.2448892,177.775387 C32.6537551,178.184165 32.8990747,178.723752 32.9317839,179.296041 C32.9481386,179.557659 33.111685,179.786575 33.3570045,179.86833 C33.6023241,179.966437 33.8803529,179.901033 34.0602539,179.72117 L36.7914784,176.990534 C36.9223155,176.859725 36.987734,176.696213 36.987734,176.516351 C36.987734,176.336489 36.9223155,176.172978 36.7914784,176.042169 L34.8452765,174.096386 C35.2377878,173.916523 35.5975898,173.654905 35.908328,173.360585 C37.3638907,171.905336 37.3638907,169.534423 35.908328,168.095525 L35.908328,168.095525 Z M34.9761136,172.41222 C34.5836023,172.804647 34.0766086,173.049914 33.5205509,173.098967 C33.2588767,173.13167 33.0462664,173.295181 32.9644932,173.540448 C32.88272,173.785714 32.9317839,174.047332 33.1280396,174.227194 L35.4013342,176.5 L33.9621261,177.938898 C33.7822251,177.53012 33.5205509,177.137694 33.1934581,176.827022 C32.4902087,176.123924 31.5579944,175.731497 30.5603615,175.731497 C29.5627286,175.731497 28.6305143,176.123924 27.9272649,176.827022 C27.2240155,177.53012 26.8315042,178.462134 26.8315042,179.459552 C26.8315042,180.456971 27.2240155,181.388985 27.9272649,182.092083 C28.2543577,182.419105 28.6305143,182.680723 29.0393802,182.860585 L27.518399,184.381239 L19.6027545,176.5 L27.4856897,168.618761 L29.7589843,170.891566 C29.9388853,171.071429 30.2169141,171.136833 30.4458791,171.055077 C30.6911986,170.973322 30.854745,170.744406 30.8874543,170.499139 C30.9365182,169.943201 31.1818377,169.436317 31.574349,169.04389 C32.0322789,168.586059 32.6374005,168.340792 33.2752313,168.340792 C33.9130622,168.340792 34.5181838,168.586059 34.9761136,169.04389 C35.908328,169.959552 35.908328,171.480207 34.9761136,172.41222 L34.9761136,172.41222 Z" id="Shape"></path>
            </g>
        </g>
    </g>
</svg>